<?xml version="1.0" encoding="UTF-8"?><svg id="Layer_1" xmlns="http://www.w3.org/2000/svg" viewBox="0 0 899.25 216.03"><defs><style>.cls-1{fill:#231f20;}</style></defs><path class="cls-1" d="m31.7,141.96c-10.12-5.85-17.93-14.42-23.44-25.71C2.75,104.97,0,91.34,0,75.37s2.75-29.6,8.26-40.89c5.5-11.29,13.32-19.86,23.44-25.71C41.81,2.93,53.62,0,67.11,0s25.29,2.93,35.41,8.78c10.12,5.85,17.93,14.42,23.44,25.71,5.5,11.29,8.26,24.92,8.26,40.89s-2.76,29.6-8.26,40.88c-5.51,11.29-13.32,19.86-23.44,25.71-10.12,5.85-21.92,8.78-35.41,8.78s-25.29-2.93-35.41-8.78Zm50.38-2.17c4.61-4.54,8.43-12.11,11.46-22.71,3.03-10.6,4.54-24.5,4.54-41.71s-1.52-31.11-4.54-41.71c-3.03-10.6-6.85-18.17-11.46-22.71-4.61-4.54-9.6-6.81-14.97-6.81s-10.36,2.27-14.97,6.81c-4.61,4.54-8.43,12.12-11.46,22.71-3.03,10.6-4.54,24.51-4.54,41.71s1.51,31.11,4.54,41.71c3.03,10.6,6.85,18.17,11.46,22.71,4.61,4.54,9.6,6.81,14.97,6.81s10.36-2.27,14.97-6.81Z"/><path class="cls-1" d="m151.77,144.54l12.39-3.1V50.59l-12.39-3.1v-3.1h18.58c8.12,0,14.52,2.62,19.2,7.85,1.79,2.06,3.3,4.62,4.54,7.64,1.93-3.58,4.2-6.67,6.81-9.29,6.19-6.19,13.9-9.29,23.13-9.29,7.71,0,14.63,1.62,20.75,4.85,6.12,3.23,10.91,7.47,14.35,12.7,3.44,5.23,5.16,10.74,5.16,16.52v66.08l12.39,3.1v3.1h-26.84c-12.39,0-18.58-6.19-18.58-18.58v-53.69c0-8.67-1.55-15.31-4.65-19.93-3.1-4.61-6.71-6.92-10.84-6.92-5.23,0-9.91,2.76-14.04,8.26-1.79,2.34-3.3,5.1-4.54,8.26v76.4l12.39,3.1v3.1h-57.82v-3.1Z"/><path class="cls-1" d="m291.15,144.54l12.39-3.1V9.29l-12.39-3.1v-3.1h55.75c20.92,0,36.31,3.34,46.15,10.01,9.84,6.68,14.76,15.38,14.76,26.12,0,7.43-2.14,13.42-6.4,17.96-4.27,4.54-9.71,7.92-16.31,10.12-7.02,2.48-14.59,3.79-22.71,3.92v1.03c10.05.41,18.79,1.93,26.22,4.54,7.57,2.48,13.87,6.33,18.89,11.56,5.02,5.23,7.54,11.91,7.54,20.03,0,12.25-5.03,21.86-15.07,28.81-10.05,6.95-26.36,10.43-48.94,10.43h-59.88v-3.1Zm55.75-75.37c4.54,0,8.78-1.27,12.7-3.82,3.92-2.55,7.09-6.12,9.5-10.74,2.41-4.61,3.61-9.74,3.61-15.38,0-6.06-1.21-11.42-3.61-16.11-2.41-4.68-5.58-8.33-9.5-10.94-3.92-2.61-8.16-3.92-12.7-3.92h-9.29v60.91h9.29Zm4.13,73.3c8.53,0,15.49-3.03,20.86-9.09,5.37-6.05,8.05-14.38,8.05-24.98s-2.68-18.93-8.05-24.99c-5.37-6.06-12.32-9.09-20.86-9.09h-13.42v68.14h13.42Z"/><path class="cls-1" d="m444.05,136.18c-9.7-9.7-14.56-23.09-14.56-40.16s4.85-30.46,14.56-40.16c9.71-9.7,23.09-14.56,40.16-14.56s30.46,4.85,40.16,14.56c9.71,9.71,14.56,23.09,14.56,40.16s-4.85,30.46-14.56,40.16c-9.7,9.71-23.09,14.56-40.16,14.56s-30.46-4.85-40.16-14.56Zm54.1-1.14c3.78-7.71,5.68-20.72,5.68-39.02s-1.89-31.32-5.68-39.03c-3.79-7.71-8.43-11.56-13.94-11.56s-10.15,3.85-13.94,11.56c-3.79,7.71-5.68,20.72-5.68,39.03s1.89,31.32,5.68,39.02c3.78,7.71,8.43,11.56,13.94,11.56s10.15-3.85,13.94-11.56Z"/><path class="cls-1" d="m567.42,142.89c-6.61-5.23-9.91-11.9-9.91-20.03,0-5.37,1.17-10.67,3.51-15.9.96-2.48,2.2-4.75,3.72-6.81,5.64-1.38,11.77-2.61,18.38-3.72,14.87-2.48,28.01-3.99,39.44-4.54v-6.19c0-15.28-1.86-25.81-5.58-31.59s-9.43-8.67-17.14-8.67c-2.89,0-5.37.35-7.43,1.03l-2.89,1.03v30.97l-2.69.62c-2.2.28-4.06.41-5.57.41-4.68,0-8.43-1.41-11.25-4.23-2.82-2.82-4.23-6.57-4.23-11.25,0-6.33,3.2-11.7,9.6-16.11,6.4-4.4,15.93-6.61,28.6-6.61,10.74,0,19.99,1.89,27.77,5.68,7.78,3.79,13.7,9.02,17.76,15.69,4.06,6.68,6.09,14.35,6.09,23.02v55.75l12.39,3.1v3.1h-18.58c-8.26,0-14.66-2.55-19.2-7.64-1.93-2.06-3.44-4.68-4.54-7.85-1.93,3.44-4.2,6.54-6.81,9.29-6.19,6.19-13.91,9.29-23.13,9.29-12.25,0-21.68-2.62-28.29-7.85Zm50.38-7.64c1.51-2.06,3.1-4.82,4.75-8.26v-29.94c-6.33,0-12.39.35-18.17,1.03-4.27.55-7.16.9-8.67,1.03-.69,1.52-1.38,3.58-2.06,6.19-1.38,5.23-2.06,10.4-2.06,15.49,0,7.71,1.17,13.42,3.51,17.14,2.34,3.72,5.3,5.58,8.88,5.58,5.09,0,9.7-2.75,13.83-8.26Z"/><path class="cls-1" d="m680.37,144.54l12.39-3.1V50.59l-12.39-3.1v-3.1h18.58c8.12,0,14.52,2.62,19.2,7.85,1.79,2.06,3.3,4.62,4.54,7.64,2.06-3.03,4.61-5.78,7.64-8.26,6.88-5.51,14.59-8.26,23.13-8.26,7.29,0,12.77,1.69,16.41,5.06,3.65,3.37,5.47,8.23,5.47,14.56,0,4.68-1.41,8.43-4.23,11.25-2.82,2.82-6.58,4.23-11.25,4.23-1.93,0-3.85-.13-5.78-.41l-2.48-.62v-28.91c-7.02,0-13.42,2.76-19.2,8.26-2.75,2.76-4.96,5.51-6.61,8.26v76.4l12.39,3.1v3.1h-57.82v-3.1Z"/><path class="cls-1" d="m805.29,144.44c-6.33-4.2-11.36-10.39-15.07-18.58-3.72-8.19-5.58-18.14-5.58-29.84,0-17.62,4.09-31.14,12.29-40.58,8.19-9.43,19.24-14.14,33.14-14.14,6.61,0,12.39,1.38,17.34,4.13,2.06.96,4.2,2.34,6.4,4.13V9.29l-12.39-3.1v-3.1h26.84c12.39,0,18.58,6.19,18.58,18.58v119.76l12.39,3.1v3.1h-18.58c-8.26,0-14.66-2.55-19.2-7.64-1.93-2.06-3.44-4.68-4.54-7.85-1.79,3.44-4.06,6.54-6.81,9.29-6.19,6.19-13.91,9.29-23.13,9.29-8.12,0-15.35-2.1-21.68-6.3Zm43.78-9.19c1.51-2.06,3.1-4.82,4.75-8.26V55.75c-1.52-1.51-3.1-2.89-4.75-4.13-3.72-2.75-7.3-4.13-10.74-4.13-5.92,0-10.5,3.44-13.73,10.32-3.24,6.89-4.85,19.62-4.85,38.2s1.48,30.11,4.44,37.06c2.96,6.95,6.64,10.43,11.05,10.43,5.09,0,9.7-2.75,13.83-8.26Z"/><path class="cls-1" d="m257.98,214.78l3-.75v-32.29h-5.76c0,2.04-.55,3.99-1.65,5.86-.47.77-1,1.4-1.6,1.9h-1.5v-9.01h29.28v9.01h-1.5c-.63-.5-1.18-1.13-1.65-1.9-1.07-1.8-1.6-3.76-1.6-5.86h-5.76v32.29l3,.75v.75h-14.27v-.75Z"/><path class="cls-1" d="m305.53,215.53v-.75l3-.75v-32.03l-3-.75v-.75h14.27v.75l-3,.75v15.52h10.76v-15.52l-3-.75v-.75h14.27v.75l-3,.75v32.03l3,.75v.75h-14.27v-.75l3-.75v-15.27h-10.76v15.27l3,.75v.75h-14.27Z"/><path class="cls-1" d="m365.34,214.78l3-.75v-32.03l-3-.75v-.75h26.78v9.01h-1.5c-.63-.5-1.18-1.13-1.65-1.9-1.07-1.8-1.6-3.76-1.6-5.86h-10.76v15.77h5.76c.23-1.27.67-2.45,1.3-3.55.27-.5.58-.98.95-1.45h1.5v11.26h-1.5c-.37-.47-.68-.95-.95-1.45-.63-1.1-1.07-2.29-1.3-3.55h-5.76v15.52h11.76c0-2.1.53-4.06,1.6-5.86.47-.77,1.02-1.4,1.65-1.9h1.5v9.01h-27.78v-.75Z"/><path class="cls-1" d="m453.69,214.78l3-.75v-32.03l-3-.75v-.75h26.78v9.01h-1.5c-.63-.5-1.18-1.13-1.65-1.9-1.07-1.8-1.6-3.76-1.6-5.86h-10.76v15.77h5.76c.23-1.27.67-2.45,1.3-3.55.27-.5.58-.98.95-1.45h1.5v11.26h-1.5c-.37-.47-.68-.95-.95-1.45-.64-1.1-1.07-2.29-1.3-3.55h-5.76v15.27l3,.75v.75h-14.27v-.75Z"/><path class="cls-1" d="m506.25,215.53v-.75l3-.75v-32.03l-3-.75v-.75h14.27v.75l-3,.75v32.03l3,.75v.75h-14.27Z"/><path class="cls-1" d="m547.05,214.78l3-.75v-32.03l-3-.75v-.75h14.27v.75l-3,.75v32.29h10.76c0-2.1.53-4.06,1.6-5.86.47-.77,1.02-1.4,1.65-1.9h1.5v9.01h-26.78v-.75Z"/><path class="cls-1" d="m604.11,186.74v26.53l4,1.5v.75h-9.51v-.75l4-1.5v-31.28l-3-.75v-.75h6.26c1.73,0,3.11.36,4.13,1.08,1.02.72,1.89,1.78,2.63,3.18l10.91,20.87,8.36-20.87c.57-1.47,1.33-2.54,2.3-3.23.97-.68,2.45-1.03,4.46-1.03h5.26v.75l-3,.75v32.03l3,.75v.75h-14.27v-.75l3-.75v-27.28l-11.76,29.28h-1.5l-15.27-29.28Z"/></svg>