<?xml version="1.0" encoding="utf-8"?>
<!-- Generator: Adobe Illustrator 27.3.1, SVG Export Plug-In . SVG Version: 6.00 Build 0)  -->
<svg version="1.1" id="Layer_1" xmlns="http://www.w3.org/2000/svg" xmlns:xlink="http://www.w3.org/1999/xlink" x="0px" y="0px"
	 viewBox="0 0 1000 1000" style="enable-background:new 0 0 1000 1000;" xml:space="preserve">
<style type="text/css">
	.st0{fill:#FFFFFF;}
</style>
<g>
	<g>
		<path class="st0" d="M82.1,533.9c-10.1-5.8-17.9-14.4-23.4-25.7c-5.5-11.3-8.3-24.9-8.3-40.9c0-16,2.8-29.6,8.3-40.9
			c5.5-11.3,13.3-19.9,23.4-25.7c10.1-5.8,21.9-8.8,35.4-8.8c13.5,0,25.3,2.9,35.4,8.8c10.1,5.9,17.9,14.4,23.4,25.7
			c5.5,11.3,8.3,24.9,8.3,40.9c0,16-2.8,29.6-8.3,40.9c-5.5,11.3-13.3,19.9-23.4,25.7c-10.1,5.8-21.9,8.8-35.4,8.8
			C104,542.7,92.2,539.8,82.1,533.9z M132.5,531.8c4.6-4.5,8.4-12.1,11.5-22.7c3-10.6,4.5-24.5,4.5-41.7c0-17.2-1.5-31.1-4.5-41.7
			c-3-10.6-6.8-18.2-11.5-22.7c-4.6-4.5-9.6-6.8-15-6.8c-5.4,0-10.4,2.3-15,6.8c-4.6,4.5-8.4,12.1-11.5,22.7
			c-3,10.6-4.5,24.5-4.5,41.7c0,17.2,1.5,31.1,4.5,41.7c3,10.6,6.8,18.2,11.5,22.7c4.6,4.5,9.6,6.8,15,6.8
			C122.9,538.6,127.8,536.3,132.5,531.8z"/>
		<path class="st0" d="M202.1,536.5l12.4-3.1v-90.9l-12.4-3.1v-3.1h18.6c8.1,0,14.5,2.6,19.2,7.8c1.8,2.1,3.3,4.6,4.5,7.6
			c1.9-3.6,4.2-6.7,6.8-9.3c6.2-6.2,13.9-9.3,23.1-9.3c7.7,0,14.6,1.6,20.8,4.9c6.1,3.2,10.9,7.5,14.4,12.7
			c3.4,5.2,5.2,10.7,5.2,16.5v66.1l12.4,3.1v3.1h-26.8c-12.4,0-18.6-6.2-18.6-18.6v-53.7c0-8.7-1.5-15.3-4.6-19.9
			c-3.1-4.6-6.7-6.9-10.8-6.9c-5.2,0-9.9,2.8-14,8.3c-1.8,2.3-3.3,5.1-4.5,8.3v76.4l12.4,3.1v3.1h-57.8V536.5z"/>
		<path class="st0" d="M341.5,536.5l12.4-3.1V401.3l-12.4-3.1v-3.1h55.8c20.9,0,36.3,3.3,46.2,10c9.8,6.7,14.8,15.4,14.8,26.1
			c0,7.4-2.1,13.4-6.4,18c-4.3,4.5-9.7,7.9-16.3,10.1c-7,2.5-14.6,3.8-22.7,3.9v1c10,0.4,18.8,1.9,26.2,4.5
			c7.6,2.5,13.9,6.3,18.9,11.6c5,5.2,7.5,11.9,7.5,20c0,12.3-5,21.9-15.1,28.8c-10.1,7-26.4,10.4-48.9,10.4h-59.9V536.5z
			 M397.3,461.2c4.5,0,8.8-1.3,12.7-3.8c3.9-2.5,7.1-6.1,9.5-10.7c2.4-4.6,3.6-9.7,3.6-15.4c0-6.1-1.2-11.4-3.6-16.1
			c-2.4-4.7-5.6-8.3-9.5-10.9c-3.9-2.6-8.2-3.9-12.7-3.9H388v60.9H397.3z M401.4,534.5c8.5,0,15.5-3,20.9-9.1
			c5.4-6.1,8.1-14.4,8.1-25c0-10.6-2.7-18.9-8.1-25c-5.4-6.1-12.3-9.1-20.9-9.1H388v68.1H401.4z"/>
		<path class="st0" d="M494.4,528.2c-9.7-9.7-14.6-23.1-14.6-40.2c0-17.1,4.9-30.5,14.6-40.2c9.7-9.7,23.1-14.6,40.2-14.6
			c17.1,0,30.5,4.9,40.2,14.6c9.7,9.7,14.6,23.1,14.6,40.2c0,17.1-4.9,30.5-14.6,40.2c-9.7,9.7-23.1,14.6-40.2,14.6
			C517.5,542.7,504.1,537.9,494.4,528.2z M548.5,527c3.8-7.7,5.7-20.7,5.7-39c0-18.3-1.9-31.3-5.7-39c-3.8-7.7-8.4-11.6-13.9-11.6
			c-5.5,0-10.2,3.9-13.9,11.6c-3.8,7.7-5.7,20.7-5.7,39c0,18.3,1.9,31.3,5.7,39c3.8,7.7,8.4,11.6,13.9,11.6
			C540.1,538.6,544.7,534.7,548.5,527z"/>
		<path class="st0" d="M617.8,534.9c-6.6-5.2-9.9-11.9-9.9-20c0-5.4,1.2-10.7,3.5-15.9c1-2.5,2.2-4.7,3.7-6.8
			c5.6-1.4,11.8-2.6,18.4-3.7c14.9-2.5,28-4,39.4-4.5v-6.2c0-15.3-1.9-25.8-5.6-31.6c-3.7-5.8-9.4-8.7-17.1-8.7
			c-2.9,0-5.4,0.3-7.4,1l-2.9,1v31l-2.7,0.6c-2.2,0.3-4.1,0.4-5.6,0.4c-4.7,0-8.4-1.4-11.3-4.2c-2.8-2.8-4.2-6.6-4.2-11.3
			c0-6.3,3.2-11.7,9.6-16.1c6.4-4.4,15.9-6.6,28.6-6.6c10.7,0,20,1.9,27.8,5.7c7.8,3.8,13.7,9,17.8,15.7c4.1,6.7,6.1,14.4,6.1,23
			v55.8l12.4,3.1v3.1h-18.6c-8.3,0-14.7-2.5-19.2-7.6c-1.9-2.1-3.4-4.7-4.5-7.8c-1.9,3.4-4.2,6.5-6.8,9.3
			c-6.2,6.2-13.9,9.3-23.1,9.3C633.8,542.7,624.4,540.1,617.8,534.9z M668.2,527.2c1.5-2.1,3.1-4.8,4.8-8.3V489
			c-6.3,0-12.4,0.3-18.2,1c-4.3,0.6-7.2,0.9-8.7,1c-0.7,1.5-1.4,3.6-2.1,6.2c-1.4,5.2-2.1,10.4-2.1,15.5c0,7.7,1.2,13.4,3.5,17.1
			c2.3,3.7,5.3,5.6,8.9,5.6C659.4,535.5,664.1,532.7,668.2,527.2z"/>
		<path class="st0" d="M730.7,536.5l12.4-3.1v-90.9l-12.4-3.1v-3.1h18.6c8.1,0,14.5,2.6,19.2,7.8c1.8,2.1,3.3,4.6,4.5,7.6
			c2.1-3,4.6-5.8,7.6-8.3c6.9-5.5,14.6-8.3,23.1-8.3c7.3,0,12.8,1.7,16.4,5.1c3.6,3.4,5.5,8.2,5.5,14.6c0,4.7-1.4,8.4-4.2,11.3
			c-2.8,2.8-6.6,4.2-11.3,4.2c-1.9,0-3.9-0.1-5.8-0.4l-2.5-0.6v-28.9c-7,0-13.4,2.8-19.2,8.3c-2.8,2.8-5,5.5-6.6,8.3v76.4l12.4,3.1
			v3.1h-57.8V536.5z"/>
		<path class="st0" d="M855.7,536.4c-6.3-4.2-11.4-10.4-15.1-18.6c-3.7-8.2-5.6-18.1-5.6-29.8c0-17.6,4.1-31.1,12.3-40.6
			c8.2-9.4,19.2-14.1,33.1-14.1c6.6,0,12.4,1.4,17.3,4.1c2.1,1,4.2,2.3,6.4,4.1v-40.3l-12.4-3.1v-3.1h26.8
			c12.4,0,18.6,6.2,18.6,18.6v119.8l12.4,3.1v3.1H931c-8.3,0-14.7-2.5-19.2-7.6c-1.9-2.1-3.4-4.7-4.5-7.8c-1.8,3.4-4.1,6.5-6.8,9.3
			c-6.2,6.2-13.9,9.3-23.1,9.3C869.2,542.7,862,540.6,855.7,536.4z M899.4,527.2c1.5-2.1,3.1-4.8,4.8-8.3v-71.2
			c-1.5-1.5-3.1-2.9-4.8-4.1c-3.7-2.8-7.3-4.1-10.7-4.1c-5.9,0-10.5,3.4-13.7,10.3c-3.2,6.9-4.9,19.6-4.9,38.2
			c0,17.8,1.5,30.1,4.4,37.1c3,7,6.6,10.4,11,10.4C890.7,535.5,895.3,532.7,899.4,527.2z"/>
	</g>
	<g>
		<path class="st0" d="M308.4,606.8l3-0.8v-32.3h-5.8c0,2-0.6,4-1.7,5.9c-0.5,0.8-1,1.4-1.6,1.9h-1.5v-9h29.3v9h-1.5
			c-0.6-0.5-1.2-1.1-1.7-1.9c-1.1-1.8-1.6-3.8-1.6-5.9h-5.8V606l3,0.8v0.8h-14.3V606.8z"/>
		<path class="st0" d="M355.9,607.5v-0.8l3-0.8v-32l-3-0.8v-0.8h14.3v0.8l-3,0.8v15.5h10.8V574l-3-0.8v-0.8h14.3v0.8l-3,0.8v32
			l3,0.8v0.8h-14.3v-0.8l3-0.8v-15.3h-10.8V606l3,0.8v0.8H355.9z"/>
		<path class="st0" d="M415.7,606.8l3-0.8v-32l-3-0.8v-0.8h26.8v9H441c-0.6-0.5-1.2-1.1-1.7-1.9c-1.1-1.8-1.6-3.8-1.6-5.9H427v15.8
			h5.8c0.2-1.3,0.7-2.5,1.3-3.6c0.3-0.5,0.6-1,1-1.5h1.5v11.3H435c-0.4-0.5-0.7-1-1-1.5c-0.6-1.1-1.1-2.3-1.3-3.6H427v15.5h11.8
			c0-2.1,0.5-4.1,1.6-5.9c0.5-0.8,1-1.4,1.7-1.9h1.5v9h-27.8V606.8z"/>
		<path class="st0" d="M504.1,606.8l3-0.8v-32l-3-0.8v-0.8h26.8v9h-1.5c-0.6-0.5-1.2-1.1-1.7-1.9c-1.1-1.8-1.6-3.8-1.6-5.9h-10.8
			v15.8h5.8c0.2-1.3,0.7-2.5,1.3-3.6c0.3-0.5,0.6-1,1-1.5h1.5v11.3h-1.5c-0.4-0.5-0.7-1-1-1.5c-0.6-1.1-1.1-2.3-1.3-3.6h-5.8V606
			l3,0.8v0.8h-14.3V606.8z"/>
		<path class="st0" d="M556.6,607.5v-0.8l3-0.8v-32l-3-0.8v-0.8h14.3v0.8l-3,0.8v32l3,0.8v0.8H556.6z"/>
		<path class="st0" d="M597.4,606.8l3-0.8v-32l-3-0.8v-0.8h14.3v0.8l-3,0.8v32.3h10.8c0-2.1,0.5-4.1,1.6-5.9c0.5-0.8,1-1.4,1.7-1.9
			h1.5v9h-26.8V606.8z"/>
		<path class="st0" d="M654.5,578.7v26.5l4,1.5v0.8H649v-0.8l4-1.5V574l-3-0.8v-0.8h6.3c1.7,0,3.1,0.4,4.1,1.1
			c1,0.7,1.9,1.8,2.6,3.2l10.9,20.9l8.4-20.9c0.6-1.5,1.3-2.5,2.3-3.2c1-0.7,2.5-1,4.5-1h5.3v0.8l-3,0.8v32l3,0.8v0.8H680v-0.8
			l3-0.8v-27.3L671.3,608h-1.5L654.5,578.7z"/>
	</g>
</g>
</svg>
