<?xml version="1.0" encoding="UTF-8"?><svg id="Layer_2" xmlns="http://www.w3.org/2000/svg" viewBox="0 0 500.45 499.63"><defs><style>.cls-1{fill:#fff;}.cls-2{fill:#818383;}.cls-3{fill:#0e3967;}</style></defs><g id="Layer_2-2"><g id="AP"><path class="cls-2" d="m500.45,0h-232.93s-123.67,99.86-123.67,99.86l195.79,236.68,94.85-79.21-61.73-75.69,79.56-64.85c23.63-19.26,41.1-40.56,48.13-63.78V0Zm-148.05,116.04l-19.89,16.21c1.62-1.32-46.95-60.96-49.54-60.98l29.72-24.22c28.18-22.97,46.17-21.2,62.27-1.45,18.79,23.04,13.89,40.72-22.57,70.44Z"/><path class="cls-1" d="m143.45,100.07L0,216.99v282.41h97l4.79-32.85,114.01-92.93,31.22,38.29,92.22-75.16L143.45,100.07Zm-46.85,284.81l7.58-144.73,67.87,83.23-75.45,61.5Z"/></g><polygon class="cls-3" points="267.52 0 0 0 0 217.01 143.45 100.16 267.52 0"/><path class="cls-3" d="m352.4,116c36.46-29.7,41.36-47.37,22.57-70.4-16.1-19.73-34.1-21.5-62.27,1.45l-29.72,24.21c2.58.02,51.15,59.62,49.54,60.94l19.89-16.2Z"/><polygon class="cls-3" points="96.6 384.79 172.05 323.34 104.18 240.16 96.6 384.79"/><path class="cls-3" d="m500.08,52.75c-7.02,23.22-24.13,44.73-47.76,64l-79.56,64.87,61.73,75.72-94.85,79.24-92.22,75.19-31.22-38.3-114.01,92.96-4.79,32.86,403,.32V52.62l-.32.14Z"/></g></svg>