<?xml version="1.0" encoding="utf-8"?>
<!-- Generator: Adobe Illustrator 27.5.0, SVG Export Plug-In . SVG Version: 6.00 Build 0)  -->
<svg version="1.1" id="Layer_1" xmlns="http://www.w3.org/2000/svg" xmlns:xlink="http://www.w3.org/1999/xlink" x="0px" y="0px"
	 viewBox="0 0 464 266.9" style="enable-background:new 0 0 464 266.9;" xml:space="preserve">
<style type="text/css">
	.st0{fill:#808282;}
	.st1{fill:#163A65;}
	.st2{fill:#FFFFFF;}
</style>
<rect x="-0.1" y="0.4" class="st0" width="464.8" height="266.1"/>
<path class="st1" d="M391.8,127c-29.9,0-54.2,24.3-54.2,54.1c0,18.1,9,34.3,22.9,44.1c-19.2,7.7-34.9,22.4-43.6,40.8h150
	c-8.7-18.4-24.4-33.1-43.6-40.8c13.8-9.8,22.9-26,22.9-44.1C446.1,151.3,421.7,127,391.8,127L391.8,127z"/>
<g>
	<path class="st2" d="M318.1,92.4c-4.8-1.3-9.9,1.8-11.2,6.6l-3.6,13.8c-2,7.6-8.7,13.3-16.6,14c-7.4,0.5-15.8,1-25,1
		c-2.3,0-4.8,0-7.1,0.3c-18.9,1-34.7,14-39.8,31.9l-5.9,21.7c-1.3,4.8,1.5,9.9,6.4,11.2c0.8,0.3,1.5,0.3,2.3,0.3
		c4.1,0,7.6-2.8,8.9-6.6l5.9-21.7c1.3-4.6,3.8-8.7,7.1-11.7l-0.3,33.1l-19.1,67.1c-1.5,5.4,1.5,11,7.1,12.5c1,0.3,1.8,0.5,2.8,0.5
		c4.3,0,8.4-2.8,9.7-7.4l19.1-67.3h4.3l-1,64.5c0,5.6,4.3,10.2,9.9,10.5h0.3c5.6,0,10.2-4.6,10.2-9.9l1-68.6l0.3-42.6
		c1.5,0,3.1-0.3,4.3-0.3c15.8-1.3,29.1-12.5,32.9-27.8l3.6-13.8C326,98.5,323,93.7,318.1,92.4L318.1,92.4z"/>
	<path class="st2" d="M282.4,101.8c0,11.3-9.1,20.4-20.4,20.4s-20.4-9.1-20.4-20.4s9.1-20.4,20.4-20.4S282.4,90.6,282.4,101.8"/>
	<path class="st2" d="M347.4,78.4c-1.8-1.8-4.8-1.8-6.4,0.3l-6.9,7.1c-1.8,1.8-1.8,4.8,0.3,6.4c0.8,0.8,2,1.3,3.1,1.3
		c1.3,0,2.3-0.5,3.3-1.5l6.9-7.1C349.5,83,349.5,80.2,347.4,78.4z"/>
	<path class="st2" d="M325.3,66.4c-2.5-0.5-4.8,1-5.6,3.3l-2.3,9.7c-0.5,2.5,1,4.8,3.3,5.6c0.3,0,0.8,0.3,1,0.3c2,0,3.8-1.5,4.3-3.6
		l2.3-9.7C329.3,69.5,327.8,66.9,325.3,66.4L325.3,66.4z"/>
	<path class="st2" d="M299.8,82.2c0.5,2,2.3,3.3,4.3,3.3c0.5,0,0.8,0,1.3-0.3c2.5-0.8,3.8-3.3,3.1-5.6l-2.8-9.7
		c-0.8-2.5-3.3-3.8-5.6-3.1c-2.5,0.8-3.8,3.3-3.1,5.6L299.8,82.2z"/>
</g>
<path class="st1" d="M227.8,115.4c8.5-2.8,9.4-14.8,0.6-17.7l-37.5-15.4c-3.6-15.8-10.9-30.1-23-43.1C133.2,2,74.3-0.6,36.5,34.5
	c-37.2,34.7-39.9,93.5-4.7,131.3c34.7,37.2,93.5,39.9,131.3,4.7c12.4-11.6,21.3-25.9,26-41.3L227.8,115.4z"/>
<g>
	<path class="st2" d="M64.2,107.2c1.4,1.1,1.8,2.9,0.9,4.3c-0.9,1.4-2.9,1.8-4.3,1.1c-1.6-0.9-2.1-2.9-1.1-4.5
		C60.6,106.5,62.7,106.2,64.2,107.2L64.2,107.2z"/>
	<path class="st2" d="M70.8,99.9c1.3,1.4,1.1,3.2,0,4.5c-1.1,1.3-3,1.3-4.5,0.2c-1.4-1.1-1.4-3.2-0.2-4.6S69.5,98.7,70.8,99.9
		L70.8,99.9z"/>
	<path class="st2" d="M78.6,94.2c0.9,1.6,0.4,3.6-0.9,4.3c-1.3,0.9-3.2,0.7-4.3-0.7c-1.1-1.4-0.7-3.4,0.7-4.6
		C75.8,92,77.7,92.6,78.6,94.2z"/>
	<path class="st2" d="M87.6,90.1c0.5,1.8-0.4,3.6-1.8,4.1c-0.7,0.2-1.6,0.4-2.3,0c-0.7-0.4-1.4-0.9-1.8-1.6
		c-0.4-0.9-0.4-1.6-0.2-2.5c0.4-0.7,0.9-1.6,1.8-1.8C85.3,87.6,87.2,88.5,87.6,90.1L87.6,90.1z"/>
	<path class="st2" d="M97.2,88.1c0.2,1.8-1.1,3.4-2.7,3.6c-0.9,0.2-1.6-0.2-2.3-0.5s-1.3-1.1-1.4-2c-0.2-0.9,0-1.8,0.4-2.5
		c0.4-0.7,1.3-1.3,2.1-1.4C95.5,85.1,97.1,86.3,97.2,88.1L97.2,88.1z"/>
	<path class="st2" d="M107.1,88.1c-0.2,1.8-1.6,3-3.2,3c-1.6-0.2-3-1.4-3-3.2c0-1.8,1.4-3.4,3.4-3.2C106,84.7,107.3,86.3,107.1,88.1
		z"/>
	<path class="st2" d="M116.7,90.1c-0.5,1.6-2.3,2.7-3.9,2.3c-0.9-0.2-1.4-0.7-1.8-1.4c-0.4-0.7-0.7-1.4-0.5-2.3
		c0.2-0.9,0.7-1.6,1.4-2.1c0.7-0.5,1.6-0.5,2.5-0.4C116.4,86.7,117.3,88.5,116.7,90.1L116.7,90.1z"/>
	<path class="st2" d="M125.7,94.2c-0.4,0.7-1.1,1.3-2,1.4c-0.7,0.2-1.6,0.2-2.3-0.2c-1.4-0.7-2.1-2.7-1.4-4.3
		c0.7-1.6,2.7-2.3,4.3-1.6c0.9,0.4,1.4,1.1,1.8,2C126.2,92.4,126.2,93.3,125.7,94.2L125.7,94.2z"/>
	<path class="st2" d="M133.7,99.9c-0.5,0.7-1.4,1.1-2.1,1.1c-0.4,0-0.7,0-1.3-0.2c-0.4-0.2-0.7-0.2-1.1-0.5c-1.3-0.9-1.6-3-0.5-4.5
		c1.1-1.4,3-1.8,4.5-0.5c0.4,0.4,0.7,0.7,0.9,1.1c0.2,0.4,0.4,0.9,0.4,1.3C134.4,98.5,134.3,99.2,133.7,99.9L133.7,99.9z"/>
	<path class="st2" d="M140.2,107.2c-1.4,1.1-3.4,0.7-4.5-0.5c-1.1-1.3-0.9-3.2,0.4-4.5c1.3-1.3,3.4-1.1,4.6,0.4
		C141.9,104,141.6,106.2,140.2,107.2L140.2,107.2z"/>
	<path class="st2" d="M145.2,115.6c-1.6,0.7-3.6,0-4.3-1.4c-0.7-1.4-0.4-3.2,1.3-4.3c1.4-0.9,3.6-0.4,4.5,1.3
		C147.5,113,146.8,114.9,145.2,115.6L145.2,115.6z"/>
	<path class="st2" d="M50.7,110.1c1.3,0.7,2,2.1,1.3,3.4c-0.5,1.3-2,2-3.4,1.4c-1.4-0.5-2.1-2.1-1.6-3.6
		C47.9,110.1,49.5,109.4,50.7,110.1L50.7,110.1z"/>
	<path class="st2" d="M60.4,96c1.1,1.1,1.3,2.7,0.2,3.8c-0.9,1.1-2.5,1.3-3.6,0.4c-1.1-0.9-1.4-2.7-0.4-3.8
		C57.5,95.1,59.3,95.1,60.4,96L60.4,96z"/>
	<path class="st2" d="M73.6,85.4c0.7,1.3,0.4,2.9-0.9,3.6c-1.3,0.7-2.7,0.5-3.6-0.7s-0.5-3,0.7-3.8C71.3,83.8,72.9,84.2,73.6,85.4
		L73.6,85.4z"/>
	<path class="st2" d="M81.3,81.7c0.5,1.4-0.2,2.9-1.4,3.4c-1.3,0.5-2.9,0-3.6-1.3c-0.7-1.3,0-2.9,1.3-3.6
		C79.2,79.5,80.8,80.4,81.3,81.7L81.3,81.7z"/>
	<path class="st2" d="M98,77.9c0,0.7-0.2,1.4-0.5,2c-0.2,0.2-0.5,0.4-0.7,0.5c-0.4,0.2-0.5,0.4-0.9,0.4c-1.4,0.2-2.7-0.7-3-2.1
		c-0.2-1.4,0.7-2.9,2.3-3c0.4,0,0.7,0,1.1,0c0.4,0.2,0.7,0.4,0.9,0.5C97.6,76.5,98,77.2,98,77.9L98,77.9z"/>
	<path class="st2" d="M106.5,77.9c-0.2,1.4-1.4,2.5-2.7,2.5c-1.4-0.2-2.5-1.3-2.5-2.7c0-1.4,1.3-2.7,2.7-2.7
		C105.5,75.2,106.5,76.5,106.5,77.9z"/>
	<path class="st2" d="M123,81.7c-0.5,1.4-2.1,2.1-3.4,1.6c-1.3-0.5-2.1-2-1.6-3.4c0.4-1.4,2-2.3,3.4-1.8
		C122.8,78.8,123.5,80.2,123,81.7L123,81.7z"/>
	<path class="st2" d="M130.7,85.4c-0.7,1.3-2.3,1.6-3.6,1.1c-1.3-0.5-1.8-2.1-1.3-3.6c0.5-1.4,2.1-1.8,3.6-1.3
		C131,82.4,131.4,84.2,130.7,85.4L130.7,85.4z"/>
	<path class="st2" d="M137.8,90.3c-0.9,1.1-2.5,1.4-3.8,0.5c-0.5-0.4-0.9-1.1-1.1-1.8s0-1.4,0.4-2c0.4-0.5,1.1-1.1,1.8-1.1
		c0.7-0.2,1.4,0,2,0.5C138.5,87.4,138.7,89,137.8,90.3L137.8,90.3z"/>
	<path class="st2" d="M144.1,96c-1.1,1.1-2.7,0.9-3.8,0c-1.1-0.9-1.1-2.7-0.2-3.8s2.7-1.1,3.8-0.2C145.2,93.3,145.2,95.1,144.1,96z"
		/>
	<path class="st2" d="M149.5,102.6c-1.3,0.9-2.9,0.5-3.8-0.5c-0.9-1.1-0.5-2.9,0.5-3.8c1.1-0.9,2.9-0.7,3.8,0.5
		S150.5,101.9,149.5,102.6L149.5,102.6z"/>
	<path class="st2" d="M153.6,110.1c-1.3,0.5-2.9,0.2-3.4-1.1c-0.7-1.3-0.4-2.7,0.9-3.6c1.3-0.7,2.9-0.4,3.8,1.1
		C155.5,107.8,155,109.4,153.6,110.1L153.6,110.1z"/>
	<path class="st2" d="M42.5,107.2c1.1,0.5,1.6,1.8,1.1,2.9c-0.4,1.1-1.6,1.6-2.9,1.3c-1.3-0.4-1.8-1.8-1.3-3
		C40,107.2,41.3,106.7,42.5,107.2L42.5,107.2z"/>
	<path class="st2" d="M45.7,100.8c1.1,0.7,1.4,2,0.7,3c-0.7,0.9-1.8,1.4-3,0.9c-1.1-0.5-1.6-2-0.9-3
		C43.4,100.6,44.7,100.3,45.7,100.8L45.7,100.8z"/>
	<path class="st2" d="M65.2,80.2c0.7,1.1,0.5,2.5-0.5,3c-0.9,0.7-2.3,0.5-3-0.5c-0.7-1.1-0.5-2.3,0.5-3C63.1,79,64.5,79.3,65.2,80.2
		z"/>
	<path class="st2" d="M98.7,69.2c0,1.3-0.9,2.3-2,2.3c-1.3,0-2.1-0.7-2.3-2c-0.2-1.3,0.7-2.5,2-2.5C97.4,67,98.5,67.9,98.7,69.2z"/>
	<path class="st2" d="M119.8,71.5c-0.4,1.3-1.4,2-2.7,1.6c-1.1-0.4-1.8-1.4-1.6-2.7c0.2-1.3,1.4-2,2.7-1.8
		C119.4,69,120.1,70.2,119.8,71.5z"/>
	<path class="st2" d="M139.1,80.2c-0.7,0.9-2.1,1.3-3,0.7c-0.9-0.5-1.3-2-0.7-3c0.5-1.1,2-1.4,3-0.7
		C139.6,77.9,139.8,79.3,139.1,80.2L139.1,80.2z"/>
	<path class="st2" d="M154.6,95.1c-1.1,0.7-2.3,0.5-3-0.4c-0.7-1.1-0.7-2.3,0.2-3.2c0.9-0.9,2.3-0.7,3.2,0.2
		C155.7,92.9,155.5,94.2,154.6,95.1L154.6,95.1z"/>
	<path class="st2" d="M162,107.2c-1.1,0.5-2.5,0-2.9-1.1s0-2.3,1.1-3c1.1-0.5,2.3-0.2,3,0.9C163.6,105.3,163,106.7,162,107.2
		L162,107.2z"/>
	<path class="st2" d="M33.8,106c1.1,0.4,1.6,1.6,1.3,2.7c-0.4,1.1-1.6,1.6-2.7,1.3c-1.1-0.4-1.6-1.6-1.3-2.7
		C31.4,106.2,32.7,105.6,33.8,106z"/>
	<path class="st2" d="M39.8,94.4c0.9,0.7,1.3,1.8,0.7,2.9c-0.5,0.9-1.8,1.3-2.9,0.7c-0.9-0.5-1.3-1.8-0.7-2.9
		C37.5,94,38.9,93.8,39.8,94.4z"/>
	<path class="st2" d="M48.1,84.2c0.9,0.7,0.9,2.1,0.2,2.9c-0.7,0.7-2,0.9-2.9,0.2c-0.9-0.7-0.9-2-0.2-2.9
		C45.9,83.5,47.2,83.3,48.1,84.2z"/>
	<path class="st2" d="M63.3,71.7c0.5,0.9,0.4,2.1-0.5,2.9c-0.9,0.5-2.1,0.4-2.9-0.5c-0.7-0.9-0.5-2.3,0.5-2.9
		C61.3,70.4,62.6,70.8,63.3,71.7z"/>
	<path class="st2" d="M87.4,62c0.2,1.1-0.5,2.1-1.6,2.5c-1.1,0.4-2.1-0.4-2.5-1.4c-0.4-1.1,0.4-2.1,1.4-2.5
		C86.2,60.2,87.2,60.9,87.4,62L87.4,62z"/>
	<path class="st2" d="M107.1,60.7c0,1.1-1.1,2-2.1,2c-1.1,0-2-1.1-2-2.1c0-1.1,0.9-2,2.1-2C106.4,58.8,107.3,59.7,107.1,60.7z"/>
	<path class="st2" d="M113.7,61.5c-0.2,1.1-1.3,2-2.3,1.8c-1.1-0.2-1.8-1.3-1.8-2.3c0.2-1.3,1.1-2,2.3-1.8
		C113,59.3,113.9,60.4,113.7,61.5L113.7,61.5z"/>
	<path class="st2" d="M138.4,70c-0.5,1.1-1.8,1.3-2.7,0.9c-1.1-0.5-1.4-1.6-0.9-2.7c0.5-1.1,1.8-1.4,2.9-0.9
		C138.5,67.7,138.9,69,138.4,70L138.4,70z"/>
	<path class="st2" d="M143.9,73.4c-0.5,0.9-2,1.3-2.9,0.7c-0.9-0.5-1.3-1.8-0.7-2.9c0.5-0.9,1.8-1.3,2.9-0.7
		C144.3,71.1,144.6,72.4,143.9,73.4z"/>
	<path class="st2" d="M149.3,77.4c-0.7,0.9-2,1.1-2.9,0.4s-1.1-2-0.4-2.9c0.7-0.9,2-1.1,2.9-0.4C149.8,75.2,150,76.5,149.3,77.4z"/>
	<path class="st2" d="M158.6,86.5c-0.9,0.7-2.1,0.7-2.9-0.2c-0.7-0.9-0.7-2.1,0.2-2.9c0.9-0.7,2.1-0.7,2.9,0.2
		C159.5,84.5,159.5,85.8,158.6,86.5z"/>
	<path class="st2" d="M162.7,91.7c-0.9,0.7-2.1,0.5-2.9-0.4c-0.7-0.9-0.5-2.1,0.4-2.9c0.9-0.7,2.1-0.5,2.9,0.4
		C163.8,89.7,163.6,91.1,162.7,91.7z"/>
	<path class="st2" d="M171.8,109c-1.1,0.4-2.1-0.2-2.7-1.1c-0.2-0.5-0.2-1.1,0-1.6s0.5-0.9,1.1-1.1c0.5-0.2,1.1-0.2,1.6,0
		c0.5,0.2,0.9,0.5,1.1,1.1C173.4,107.4,172.9,108.7,171.8,109L171.8,109z"/>
	<path class="st2" d="M173.8,115.3c-1.1,0.4-2.1-0.4-2.5-1.4c-0.2-1.1,0.2-2.1,1.3-2.5c1.1-0.4,2.3,0.2,2.7,1.4
		C175.6,113.9,174.8,115.1,173.8,115.3L173.8,115.3z"/>
	<path class="st2" d="M24.1,109.9c1.3,0.4,1.8,1.6,1.6,2.9c-0.4,1.3-1.6,1.8-2.9,1.6c-1.3-0.4-2-1.6-1.6-2.9
		C21.8,110.1,23,109.4,24.1,109.9L24.1,109.9z"/>
	<path class="st2" d="M26.6,103.1c1.1,0.5,1.8,1.8,1.3,2.9s-1.8,1.8-2.9,1.3c-1.3-0.4-1.8-1.8-1.3-2.9
		C24.1,103.1,25.5,102.6,26.6,103.1L26.6,103.1z"/>
	<path class="st2" d="M37.7,84.4c0.9,0.7,1.1,2.1,0.4,3.2c-0.7,0.9-2.1,1.3-3.2,0.5s-1.3-2.1-0.5-3.2C35.2,83.8,36.6,83.6,37.7,84.4
		z"/>
	<path class="st2" d="M65.4,61.6c0.5,1.1,0.2,2.5-0.9,3c-1.1,0.5-2.3,0.2-3-0.9c-0.5-1.1-0.2-2.5,0.9-3C63.6,60,64.9,60.6,65.4,61.6
		L65.4,61.6z"/>
	<path class="st2" d="M93.1,53.4c0.2,1.3-0.7,2.3-2,2.5c-1.1,0.2-2.3-0.7-2.5-2c-0.2-1.3,0.7-2.5,2-2.5
		C91.9,51.3,92.9,52.2,93.1,53.4L93.1,53.4z"/>
	<path class="st2" d="M107.6,53.1c0,1.3-1.1,2.1-2.3,2.1c-1.3,0-2.1-1.1-2.1-2.3c0-1.3,1.1-2.1,2.3-2.1S107.6,51.8,107.6,53.1
		L107.6,53.1z"/>
	<path class="st2" d="M148.2,67c-0.7,1.1-2.1,1.3-3,0.7c-1.1-0.7-1.3-2-0.7-3c0.7-1.1,2-1.4,3.2-0.7C148.9,64.7,148.9,66.1,148.2,67
		L148.2,67z"/>
	<path class="st2" d="M164.5,81.5c-0.9,0.9-2.3,0.7-3.2-0.2c-0.9-0.9-0.7-2.3,0.2-3.2c0.9-0.9,2.3-0.9,3.2,0.2
		C165.4,79.3,165.4,80.8,164.5,81.5L164.5,81.5z"/>
	<path class="st2" d="M181.3,113.3c-1.3,0.4-2.5-0.4-2.9-1.4c-0.4-1.3,0.4-2.3,1.4-2.9c1.3-0.4,2.5,0.2,2.9,1.4
		C183.1,111.7,182.4,113,181.3,113.3L181.3,113.3z"/>
</g>
</svg>
