<?xml version="1.0" encoding="utf-8"?>
<!-- Generator: Adobe Illustrator 27.5.0, SVG Export Plug-In . SVG Version: 6.00 Build 0)  -->
<svg version="1.1" id="Layer_1" xmlns="http://www.w3.org/2000/svg" xmlns:xlink="http://www.w3.org/1999/xlink" x="0px" y="0px"
	 viewBox="0 0 134.6 134.1" style="enable-background:new 0 0 134.6 134.1;" xml:space="preserve">
<style type="text/css">
	.st0{fill:#163A65;}
	.st1{fill:#FFFFFF;}
</style>
<path class="st0" d="M68,13.9c-25.9,0-47,21-47,46.9c0,15.7,7.8,29.7,19.8,38.2c-16.7,6.7-30.2,19.4-37.8,35.4h130
	c-7.6-16-21.1-28.7-37.8-35.4c12-8.5,19.8-22.5,19.8-38.2C115,34.9,93.9,13.9,68,13.9L68,13.9z"/>
<g>
	<path class="st1" d="M38.5,82.4c1.1,0.8,1.3,2.2,0.7,3.2c-0.7,1.1-2.2,1.3-3.2,0.8c-1.2-0.7-1.6-2.2-0.8-3.4
		C35.8,81.8,37.4,81.6,38.5,82.4L38.5,82.4z"/>
	<path class="st1" d="M43.5,76.8c0.9,1.1,0.8,2.4,0,3.4c-0.8,0.9-2.3,0.9-3.4,0.1s-1.1-2.4-0.1-3.5C40.9,75.8,42.5,75.9,43.5,76.8
		L43.5,76.8z"/>
	<path class="st1" d="M49.4,72.5c0.7,1.2,0.3,2.7-0.7,3.2c-0.9,0.7-2.4,0.5-3.2-0.5c-0.8-1.1-0.5-2.6,0.5-3.5
		C47.2,70.9,48.7,71.3,49.4,72.5z"/>
	<path class="st1" d="M56.1,69.4c0.4,1.3-0.3,2.7-1.3,3.1c-0.5,0.1-1.2,0.3-1.8,0c-0.5-0.3-1.1-0.7-1.3-1.2
		c-0.3-0.7-0.3-1.2-0.1-1.9c0.3-0.5,0.7-1.2,1.3-1.3C54.4,67.5,55.9,68.2,56.1,69.4L56.1,69.4z"/>
	<path class="st1" d="M63.4,67.9c0.1,1.3-0.8,2.6-2,2.7c-0.7,0.1-1.2-0.1-1.8-0.4c-0.5-0.3-0.9-0.8-1.1-1.5c-0.1-0.7,0-1.3,0.3-1.9
		c0.3-0.5,0.9-0.9,1.6-1.1C62.1,65.6,63.3,66.6,63.4,67.9L63.4,67.9z"/>
	<path class="st1" d="M70.8,67.9c-0.1,1.3-1.2,2.3-2.4,2.3c-1.2-0.1-2.3-1.1-2.3-2.4c0-1.3,1.1-2.6,2.6-2.4
		C70,65.4,71,66.6,70.8,67.9z"/>
	<path class="st1" d="M78.1,69.4c-0.4,1.2-1.8,2-3,1.8c-0.7-0.1-1.1-0.5-1.3-1.1c-0.3-0.5-0.5-1.1-0.4-1.8c0.1-0.7,0.5-1.2,1.1-1.6
		c0.5-0.4,1.2-0.4,1.9-0.3C77.9,66.9,78.5,68.2,78.1,69.4L78.1,69.4z"/>
	<path class="st1" d="M84.9,72.5c-0.3,0.5-0.8,0.9-1.5,1.1c-0.5,0.1-1.2,0.1-1.8-0.1c-1.1-0.5-1.6-2-1.1-3.2c0.5-1.2,2-1.8,3.2-1.2
		c0.7,0.3,1.1,0.8,1.3,1.5C85.3,71.2,85.3,71.8,84.9,72.5L84.9,72.5z"/>
	<path class="st1" d="M91,76.8c-0.4,0.5-1.1,0.8-1.6,0.8c-0.3,0-0.5,0-0.9-0.1c-0.3-0.1-0.5-0.1-0.8-0.4c-0.9-0.7-1.2-2.3-0.4-3.4
		c0.8-1.1,2.3-1.3,3.4-0.4c0.3,0.3,0.5,0.5,0.7,0.8c0.1,0.3,0.3,0.7,0.3,0.9C91.5,75.8,91.4,76.3,91,76.8L91,76.8z"/>
	<path class="st1" d="M95.8,82.4c-1.1,0.8-2.6,0.5-3.4-0.4c-0.8-0.9-0.7-2.4,0.3-3.4c0.9-0.9,2.6-0.8,3.5,0.3
		C97.2,79.9,96.9,81.6,95.8,82.4L95.8,82.4z"/>
	<path class="st1" d="M99.6,88.7c-1.2,0.5-2.7,0-3.2-1.1s-0.3-2.4,0.9-3.2c1.1-0.7,2.7-0.3,3.4,0.9C101.3,86.7,100.8,88.2,99.6,88.7
		L99.6,88.7z"/>
	<path class="st1" d="M35.6,73.9c0.8,0.8,0.9,2,0.1,2.8c-0.7,0.8-1.9,0.9-2.7,0.3c-0.8-0.7-1.1-2-0.3-2.8
		C33.5,73.2,34.8,73.2,35.6,73.9L35.6,73.9z"/>
	<path class="st1" d="M45.6,65.9c0.5,0.9,0.3,2.2-0.7,2.7c-0.9,0.5-2,0.4-2.7-0.5s-0.4-2.3,0.5-2.8C43.9,64.7,45.1,65,45.6,65.9
		L45.6,65.9z"/>
	<path class="st1" d="M51.4,63.1c0.4,1.1-0.1,2.2-1.1,2.6c-0.9,0.4-2.2,0-2.7-0.9c-0.5-0.9,0-2.2,0.9-2.7
		C49.8,61.5,51,62.1,51.4,63.1L51.4,63.1z"/>
	<path class="st1" d="M64,60.2c0,0.5-0.1,1.1-0.4,1.5c-0.1,0.1-0.4,0.3-0.5,0.4c-0.3,0.1-0.4,0.3-0.7,0.3c-1.1,0.1-2-0.5-2.3-1.6
		c-0.1-1.1,0.5-2.2,1.8-2.3c0.3,0,0.5,0,0.8,0c0.3,0.1,0.5,0.3,0.7,0.4C63.7,59.2,64,59.7,64,60.2L64,60.2z"/>
	<path class="st1" d="M70.4,60.2c-0.1,1.1-1.1,1.9-2,1.9c-1.1-0.1-1.9-0.9-1.9-2c0-1.1,0.9-2,2-2C69.6,58.2,70.4,59.2,70.4,60.2z"/>
	<path class="st1" d="M82.9,63.1c-0.4,1.1-1.6,1.6-2.6,1.2c-0.9-0.4-1.6-1.5-1.2-2.6c0.3-1.1,1.5-1.8,2.6-1.3
		C82.7,60.9,83.3,62,82.9,63.1L82.9,63.1z"/>
	<path class="st1" d="M88.7,65.9c-0.5,0.9-1.8,1.2-2.7,0.8C85,66.3,84.6,65.1,85,64c0.4-1.1,1.6-1.3,2.7-0.9
		C88.9,63.6,89.2,65,88.7,65.9L88.7,65.9z"/>
	<path class="st1" d="M94.1,69.6c-0.7,0.8-1.9,1.1-2.8,0.4c-0.4-0.3-0.7-0.8-0.8-1.3c-0.1-0.5,0-1.1,0.3-1.5
		c0.3-0.4,0.8-0.8,1.3-0.8c0.5-0.1,1.1,0,1.5,0.4C94.6,67.4,94.7,68.6,94.1,69.6L94.1,69.6z"/>
	<path class="st1" d="M98.8,73.9c-0.8,0.8-2,0.7-2.8,0c-0.8-0.7-0.8-2-0.1-2.8c0.7-0.8,2-0.8,2.8-0.1C99.6,71.8,99.6,73.2,98.8,73.9
		z"/>
	<path class="st1" d="M102.8,78.9c-0.9,0.7-2.2,0.4-2.8-0.4s-0.4-2.2,0.4-2.8c0.8-0.7,2.2-0.5,2.8,0.4S103.6,78.3,102.8,78.9
		L102.8,78.9z"/>
	<path class="st1" d="M105.9,84.5c-0.9,0.4-2.2,0.1-2.6-0.8c-0.5-0.9-0.3-2,0.7-2.7c0.9-0.5,2.2-0.3,2.8,0.8
		C107.4,82.8,107,84,105.9,84.5L105.9,84.5z"/>
	<path class="st1" d="M39.3,62c0.5,0.8,0.4,1.9-0.4,2.3c-0.7,0.5-1.8,0.4-2.3-0.4s-0.4-1.8,0.4-2.3C37.6,61,38.7,61.3,39.3,62z"/>
	<path class="st1" d="M64.5,53.6c0,0.9-0.7,1.8-1.5,1.8c-0.9,0-1.6-0.5-1.8-1.5C61.1,53,61.8,52,62.7,52
		C63.6,52,64.4,52.7,64.5,53.6z"/>
	<path class="st1" d="M80.4,55.4c-0.3,0.9-1.1,1.5-2,1.2c-0.8-0.3-1.3-1.1-1.2-2s1.1-1.5,2-1.3C80.2,53.5,80.7,54.4,80.4,55.4z"/>
	<path class="st1" d="M95,62c-0.5,0.7-1.6,0.9-2.3,0.5c-0.7-0.4-0.9-1.5-0.5-2.3c0.4-0.8,1.5-1.1,2.3-0.5C95.4,60.2,95.5,61.3,95,62
		L95,62z"/>
	<path class="st1" d="M106.7,73.2c-0.8,0.5-1.8,0.4-2.3-0.3c-0.5-0.8-0.5-1.8,0.1-2.4c0.7-0.7,1.8-0.5,2.4,0.1
		C107.6,71.6,107.4,72.5,106.7,73.2L106.7,73.2z"/>
	<path class="st1" d="M26.3,65c0.7,0.5,0.7,1.6,0.1,2.2c-0.5,0.5-1.5,0.7-2.2,0.1c-0.7-0.5-0.7-1.5-0.1-2.2S25.6,64.3,26.3,65z"/>
	<path class="st1" d="M37.8,55.5c0.4,0.7,0.3,1.6-0.4,2.2c-0.7,0.4-1.6,0.3-2.2-0.4c-0.5-0.7-0.4-1.8,0.4-2.2
		C36.3,54.6,37.2,54.8,37.8,55.5z"/>
	<path class="st1" d="M56,48.2c0.1,0.8-0.4,1.6-1.2,1.9c-0.8,0.3-1.6-0.3-1.9-1.1s0.3-1.6,1.1-1.9C55.1,46.9,55.9,47.4,56,48.2
		L56,48.2z"/>
	<path class="st1" d="M70.8,47.3c0,0.8-0.8,1.5-1.6,1.5c-0.8,0-1.5-0.8-1.5-1.6s0.7-1.5,1.6-1.5C70.3,45.8,71,46.5,70.8,47.3z"/>
	<path class="st1" d="M75.8,47.8c-0.1,0.8-0.9,1.5-1.8,1.3c-0.8-0.1-1.3-0.9-1.3-1.8c0.1-0.9,0.8-1.5,1.8-1.3
		C75.3,46.2,76,47,75.8,47.8L75.8,47.8z"/>
	<path class="st1" d="M94.5,54.3c-0.4,0.8-1.3,0.9-2,0.7c-0.8-0.4-1.1-1.2-0.7-2s1.3-1.1,2.2-0.7C94.6,52.5,94.9,53.5,94.5,54.3
		L94.5,54.3z"/>
	<path class="st1" d="M98.6,56.9c-0.4,0.7-1.5,0.9-2.2,0.5s-0.9-1.3-0.5-2.2c0.4-0.7,1.3-0.9,2.2-0.5C98.9,55.1,99.2,56.1,98.6,56.9
		z"/>
	<path class="st1" d="M102.7,59.8c-0.5,0.7-1.5,0.8-2.2,0.3c-0.7-0.5-0.8-1.5-0.3-2.2s1.5-0.8,2.2-0.3
		C103.1,58.2,103.2,59.2,102.7,59.8z"/>
	<path class="st1" d="M109.7,66.7c-0.7,0.5-1.6,0.5-2.2-0.1c-0.5-0.7-0.5-1.6,0.1-2.2c0.7-0.5,1.6-0.5,2.2,0.1
		C110.4,65.2,110.4,66.2,109.7,66.7z"/>
	<path class="st1" d="M112.8,70.6c-0.7,0.5-1.6,0.4-2.2-0.3c-0.5-0.7-0.4-1.6,0.3-2.2c0.7-0.5,1.6-0.4,2.2,0.3
		C113.6,69.1,113.5,70.2,112.8,70.6z"/>
	<path class="st1" d="M39.4,48c0.4,0.8,0.1,1.9-0.7,2.3c-0.8,0.4-1.8,0.1-2.3-0.7c-0.4-0.8-0.1-1.9,0.7-2.3
		C38.1,46.7,39,47.2,39.4,48L39.4,48z"/>
	<path class="st1" d="M60.3,41.8c0.1,0.9-0.5,1.8-1.5,1.9c-0.8,0.1-1.8-0.5-1.9-1.5c-0.1-0.9,0.5-1.9,1.5-1.9
		C59.4,40.1,60.2,40.8,60.3,41.8L60.3,41.8z"/>
	<path class="st1" d="M71.3,41.5c0,0.9-0.8,1.6-1.8,1.6s-1.6-0.8-1.6-1.8s0.8-1.6,1.8-1.6S71.3,40.5,71.3,41.5L71.3,41.5z"/>
	<path class="st1" d="M101.9,52c-0.5,0.8-1.6,0.9-2.3,0.5c-0.8-0.5-0.9-1.5-0.5-2.3c0.5-0.8,1.5-1.1,2.4-0.5
		C102.4,50.3,102.4,51.3,101.9,52L101.9,52z"/>
	<path class="st1" d="M114.2,62.9c-0.7,0.7-1.8,0.5-2.4-0.1c-0.7-0.7-0.5-1.8,0.1-2.4c0.7-0.7,1.8-0.7,2.4,0.1
		C114.8,61.3,114.8,62.4,114.2,62.9L114.2,62.9z"/>
</g>
<path class="st1" d="M42,29.3c0.2,4.3,3.7,7.7,8,7.7c4.4,0,8-3.6,8-8c0-2.2-0.9-4.1-2.2-5.6L42,29.3z"/>
<path class="st1" d="M93.6,29.3c-0.2,4.3-3.7,7.7-8,7.7c-4.4,0-8-3.6-8-8c0-2.2,0.9-4.1,2.2-5.6L93.6,29.3z"/>
</svg>
