<?xml version="1.0" encoding="utf-8"?>
<!-- Generator: Adobe Illustrator 27.5.0, SVG Export Plug-In . SVG Version: 6.00 Build 0)  -->
<svg version="1.1" id="Layer_1" xmlns="http://www.w3.org/2000/svg" xmlns:xlink="http://www.w3.org/1999/xlink" x="0px" y="0px"
	 viewBox="0 0 124.1 127.9" style="enable-background:new 0 0 124.1 127.9;" xml:space="preserve">
<style type="text/css">
	.st0{fill:#163A65;}
</style>
<path class="st0" d="M61,1.1c-13.6,0-24.6,11-24.6,24.5c0,8.2,4.1,15.6,10.4,20C38,49.2,30.9,55.8,27,64.2H95
	c-4-8.4-11.1-15-19.8-18.5c6.3-4.5,10.4-11.8,10.4-20C85.6,12.1,74.5,1.1,61,1.1L61,1.1z M10.1,72.9c-1.1,0-2.1,0.5-2.8,1.3
	c-0.7,0.8-1,1.9-0.8,2.9l6.4,40.5H7.6c-2,0-3.6,1.6-3.6,3.6c0,1,0.4,1.9,1.1,2.6c0.7,0.7,1.6,1.1,2.6,1.1h106.7h0
	c1,0,1.9-0.4,2.6-1.1c0.7-0.7,1.1-1.6,1.1-2.6c0-2-1.6-3.6-3.6-3.6H109l6.4-40.5c0.2-1-0.1-2.1-0.8-2.9c-0.7-0.8-1.7-1.3-2.8-1.3
	H10.1z M39.3,110.3c0.8,0.6,1,1.7,0.5,2.5c-0.5,0.8-1.7,1-2.5,0.6c-0.9-0.5-1.2-1.7-0.6-2.6C37.2,109.8,38.4,109.6,39.3,110.3
	L39.3,110.3z M43.1,106c0.7,0.8,0.6,1.9,0,2.6c-0.6,0.7-1.8,0.7-2.6,0.1s-0.8-1.9-0.1-2.7C41.1,105.2,42.4,105.3,43.1,106L43.1,106z
	 M47.6,102.7c0.5,0.9,0.2,2.1-0.5,2.5c-0.7,0.5-1.9,0.4-2.5-0.4c-0.6-0.8-0.4-2,0.4-2.7C46,101.5,47.1,101.8,47.6,102.7z
	 M52.8,100.3c0.3,1-0.2,2.1-1,2.4c-0.4,0.1-0.9,0.2-1.3,0c-0.4-0.2-0.8-0.5-1-0.9c-0.2-0.5-0.2-0.9-0.1-1.4c0.2-0.4,0.5-0.9,1-1
	C51.4,98.9,52.6,99.4,52.8,100.3L52.8,100.3z M58.4,99.2c0.1,1-0.6,2-1.5,2.1c-0.5,0.1-0.9-0.1-1.3-0.3c-0.4-0.2-0.7-0.6-0.8-1.1
	s0-1,0.2-1.4c0.2-0.4,0.7-0.7,1.2-0.8C57.3,97.5,58.2,98.2,58.4,99.2L58.4,99.2z M64,99.2c-0.1,1-0.9,1.8-1.9,1.8
	c-0.9-0.1-1.8-0.8-1.8-1.9s0.8-2,2-1.9C63.4,97.2,64.1,98.2,64,99.2z M69.6,100.3c-0.3,0.9-1.3,1.5-2.3,1.3c-0.5-0.1-0.8-0.4-1-0.8
	c-0.2-0.4-0.4-0.8-0.3-1.3s0.4-0.9,0.8-1.2c0.4-0.3,0.9-0.3,1.4-0.2C69.4,98.4,69.9,99.4,69.6,100.3L69.6,100.3z M74.8,102.7
	c-0.2,0.4-0.6,0.7-1.1,0.8c-0.4,0.1-0.9,0.1-1.3-0.1c-0.8-0.4-1.2-1.5-0.8-2.5c0.4-0.9,1.5-1.3,2.5-0.9c0.5,0.2,0.8,0.6,1,1.1
	C75.1,101.7,75.1,102.2,74.8,102.7L74.8,102.7z M79.4,106c-0.3,0.4-0.8,0.6-1.2,0.6c-0.2,0-0.4,0-0.7-0.1c-0.2-0.1-0.4-0.1-0.6-0.3
	c-0.7-0.5-0.9-1.8-0.3-2.6c0.6-0.8,1.8-1,2.6-0.3c0.2,0.2,0.4,0.4,0.5,0.6c0.1,0.2,0.2,0.5,0.2,0.7C79.8,105.2,79.7,105.6,79.4,106
	L79.4,106z M83.1,110.3c-0.8,0.6-2,0.4-2.6-0.3c-0.6-0.7-0.5-1.9,0.2-2.6c0.7-0.7,2-0.6,2.7,0.2C84.2,108.4,84,109.6,83.1,110.3
	L83.1,110.3z M86,115.1c-0.9,0.4-2.1,0-2.5-0.8c-0.4-0.8-0.2-1.9,0.7-2.5c0.8-0.5,2.1-0.2,2.6,0.7C87.4,113.6,86.9,114.7,86,115.1
	L86,115.1z M31.5,111.9c0.7,0.4,1.1,1.2,0.7,2c-0.3,0.7-1.1,1.1-2,0.8c-0.8-0.3-1.2-1.2-0.9-2.1C29.9,111.9,30.8,111.5,31.5,111.9
	L31.5,111.9z M37.1,103.8c0.6,0.6,0.7,1.5,0.1,2.2c-0.5,0.6-1.4,0.7-2.1,0.2c-0.6-0.5-0.8-1.5-0.2-2.2
	C35.4,103.2,36.5,103.2,37.1,103.8L37.1,103.8z M44.7,97.7c0.4,0.7,0.2,1.7-0.5,2.1c-0.7,0.4-1.5,0.3-2.1-0.4
	c-0.5-0.7-0.3-1.8,0.4-2.2C43.4,96.7,44.3,96.9,44.7,97.7L44.7,97.7z M49.2,95.5c0.3,0.8-0.1,1.7-0.8,2c-0.7,0.3-1.7,0-2.1-0.7
	c-0.4-0.7,0-1.7,0.7-2.1C47.9,94.3,48.9,94.8,49.2,95.5L49.2,95.5z M58.8,93.3c0,0.4-0.1,0.8-0.3,1.1c-0.1,0.1-0.3,0.2-0.4,0.3
	c-0.2,0.1-0.3,0.2-0.5,0.2c-0.8,0.1-1.5-0.4-1.8-1.2c-0.1-0.8,0.4-1.7,1.3-1.8c0.2,0,0.4,0,0.6,0c0.2,0.1,0.4,0.2,0.5,0.3
	C58.6,92.5,58.8,92.9,58.8,93.3L58.8,93.3z M63.7,93.3c-0.1,0.8-0.8,1.4-1.5,1.4c-0.8-0.1-1.4-0.7-1.4-1.5s0.7-1.5,1.5-1.5
	C63.1,91.8,63.7,92.5,63.7,93.3z M73.2,95.5c-0.3,0.8-1.2,1.2-2,0.9c-0.7-0.3-1.2-1.1-0.9-2c0.2-0.8,1.1-1.3,2-1
	C73.1,93.8,73.5,94.7,73.2,95.5L73.2,95.5z M77.7,97.7c-0.4,0.7-1.3,0.9-2.1,0.6c-0.7-0.3-1-1.2-0.7-2.1c0.3-0.8,1.2-1,2.1-0.7
	C77.9,95.9,78.1,96.9,77.7,97.7L77.7,97.7z M81.8,100.4c-0.5,0.6-1.4,0.8-2.2,0.3c-0.3-0.2-0.5-0.6-0.6-1c-0.1-0.4,0-0.8,0.2-1.1
	c0.2-0.3,0.6-0.6,1-0.6c0.4-0.1,0.8,0,1.1,0.3C82.2,98.8,82.3,99.7,81.8,100.4L81.8,100.4z M85.4,103.8c-0.6,0.6-1.5,0.5-2.2,0
	c-0.6-0.5-0.6-1.5-0.1-2.2c0.5-0.6,1.5-0.6,2.2-0.1C86,102.2,86,103.2,85.4,103.8z M88.5,107.6c-0.7,0.5-1.7,0.3-2.2-0.3
	c-0.5-0.6-0.3-1.7,0.3-2.2c0.6-0.5,1.7-0.4,2.2,0.3S89.1,107.2,88.5,107.6L88.5,107.6z M90.9,111.9c-0.7,0.3-1.7,0.1-2-0.6
	c-0.4-0.7-0.2-1.5,0.5-2.1c0.7-0.4,1.7-0.2,2.2,0.6C92,110.6,91.7,111.5,90.9,111.9L90.9,111.9z M26.8,110.3c0.6,0.3,0.9,1,0.6,1.7
	c-0.2,0.6-0.9,0.9-1.7,0.7s-1-1-0.7-1.8C25.3,110.3,26,109.9,26.8,110.3L26.8,110.3z M28.6,106.5c0.6,0.4,0.8,1.1,0.4,1.8
	c-0.4,0.5-1,0.8-1.8,0.5c-0.6-0.3-0.9-1.1-0.5-1.8C27.3,106.4,28,106.2,28.6,106.5L28.6,106.5z M39.9,94.7c0.4,0.6,0.3,1.4-0.3,1.8
	c-0.5,0.4-1.3,0.3-1.8-0.3c-0.4-0.6-0.3-1.3,0.3-1.8C38.6,93.9,39.5,94.2,39.9,94.7z M59.2,88.3c0,0.7-0.5,1.3-1.1,1.3
	c-0.7,0-1.2-0.4-1.3-1.1c-0.1-0.7,0.4-1.4,1.1-1.4C58.5,87,59.1,87.5,59.2,88.3z M71.4,89.6c-0.2,0.7-0.8,1.1-1.5,0.9
	c-0.6-0.2-1-0.8-0.9-1.5c0.1-0.7,0.8-1.1,1.5-1C71.2,88.2,71.6,88.9,71.4,89.6z M82.5,94.7c-0.4,0.5-1.2,0.7-1.8,0.4
	s-0.7-1.1-0.4-1.8c0.3-0.6,1.1-0.8,1.8-0.4C82.8,93.3,82.9,94.2,82.5,94.7L82.5,94.7z M91.5,103.2c-0.6,0.4-1.3,0.3-1.8-0.2
	c-0.4-0.6-0.4-1.3,0.1-1.9s1.3-0.4,1.9,0.1C92.1,102,92,102.7,91.5,103.2L91.5,103.2z M95.7,110.3c-0.6,0.3-1.4,0-1.7-0.6
	s0-1.3,0.6-1.8c0.6-0.3,1.3-0.1,1.8,0.5C96.7,109.1,96.3,109.9,95.7,110.3L95.7,110.3z M21.7,109.5c0.6,0.2,0.9,0.9,0.7,1.5
	c-0.2,0.6-0.9,0.9-1.5,0.7c-0.6-0.2-0.9-0.9-0.7-1.5C20.4,109.6,21.1,109.3,21.7,109.5z M25.2,102.8c0.5,0.4,0.7,1,0.4,1.7
	c-0.3,0.5-1,0.7-1.7,0.4c-0.5-0.3-0.7-1-0.4-1.7S24.7,102.5,25.2,102.8z M30,96.9c0.5,0.4,0.5,1.2,0.1,1.7c-0.4,0.4-1.1,0.5-1.7,0.1
	c-0.5-0.4-0.5-1.1-0.1-1.7C28.7,96.5,29.4,96.4,30,96.9z M38.7,89.7c0.3,0.5,0.2,1.2-0.3,1.7c-0.5,0.3-1.2,0.2-1.7-0.3
	s-0.3-1.3,0.3-1.7C37.6,89,38.3,89.2,38.7,89.7z M52.7,84.1c0.1,0.6-0.3,1.2-0.9,1.4c-0.6,0.2-1.2-0.2-1.4-0.8
	c-0.2-0.6,0.2-1.2,0.8-1.4C52,83.1,52.6,83.5,52.7,84.1L52.7,84.1z M64,83.4c0,0.6-0.6,1.1-1.2,1.1c-0.6,0-1.1-0.6-1.1-1.2
	s0.5-1.1,1.2-1.1C63.6,82.3,64.1,82.8,64,83.4z M67.8,83.8c-0.1,0.6-0.7,1.1-1.3,1c-0.6-0.1-1-0.7-1-1.3c0.1-0.7,0.6-1.1,1.3-1
	C67.4,82.6,68,83.2,67.8,83.8L67.8,83.8z M82.1,88.8c-0.3,0.6-1,0.7-1.5,0.5c-0.6-0.3-0.8-0.9-0.5-1.5c0.3-0.6,1-0.8,1.7-0.5
	C82.2,87.4,82.4,88.2,82.1,88.8L82.1,88.8z M85.3,90.7c-0.3,0.5-1.1,0.7-1.7,0.4s-0.7-1-0.4-1.7c0.3-0.5,1-0.7,1.7-0.4
	C85.5,89.4,85.7,90.1,85.3,90.7z M88.4,93c-0.4,0.5-1.1,0.6-1.7,0.2c-0.5-0.4-0.6-1.1-0.2-1.7c0.4-0.5,1.1-0.6,1.7-0.2
	C88.7,91.8,88.8,92.5,88.4,93z M93.8,98.3c-0.5,0.4-1.2,0.4-1.7-0.1c-0.4-0.5-0.4-1.2,0.1-1.7c0.5-0.4,1.2-0.4,1.7,0.1
	C94.3,97.1,94.3,97.9,93.8,98.3z M96.1,101.3c-0.5,0.4-1.2,0.3-1.7-0.2c-0.4-0.5-0.3-1.2,0.2-1.7c0.5-0.4,1.2-0.3,1.7,0.2
	S96.7,101,96.1,101.3z M101.4,111.3c-0.6,0.2-1.2-0.1-1.5-0.6c-0.1-0.3-0.1-0.6,0-0.9c0.1-0.3,0.3-0.5,0.6-0.6
	c0.3-0.1,0.6-0.1,0.9,0c0.3,0.1,0.5,0.3,0.6,0.6C102.3,110.4,102,111.1,101.4,111.3L101.4,111.3z M102.5,114.9
	c-0.6,0.2-1.2-0.2-1.4-0.8c-0.1-0.6,0.1-1.2,0.7-1.4c0.6-0.2,1.3,0.1,1.5,0.8C103.6,114.1,103.2,114.8,102.5,114.9L102.5,114.9z
	 M16.1,111.8c0.7,0.2,1,0.9,0.9,1.7c-0.2,0.7-0.9,1-1.7,0.9c-0.7-0.2-1.1-0.9-0.9-1.7C14.8,111.9,15.5,111.5,16.1,111.8L16.1,111.8z
	 M17.6,107.9c0.6,0.3,1,1,0.7,1.7c-0.3,0.6-1,1-1.7,0.7c-0.7-0.2-1-1-0.7-1.7C16.1,107.9,17,107.6,17.6,107.9L17.6,107.9z M24,97
	c0.5,0.4,0.6,1.2,0.2,1.9c-0.4,0.5-1.2,0.7-1.9,0.3c-0.6-0.4-0.7-1.2-0.3-1.9C22.5,96.7,23.4,96.6,24,97z M40,83.9
	c0.3,0.6,0.1,1.4-0.5,1.8c-0.6,0.3-1.3,0.1-1.8-0.5c-0.3-0.6-0.1-1.4,0.5-1.8C38.9,83,39.7,83.3,40,83.9L40,83.9z M56,79.2
	c0.1,0.7-0.4,1.3-1.1,1.4c-0.6,0.1-1.3-0.4-1.4-1.1c-0.1-0.7,0.4-1.4,1.1-1.4C55.3,77.9,55.9,78.5,56,79.2L56,79.2z M64.3,79
	c0,0.7-0.6,1.2-1.3,1.2s-1.2-0.6-1.2-1.3c0-0.7,0.6-1.2,1.3-1.2C63.8,77.6,64.3,78.3,64.3,79L64.3,79z M87.8,87
	c-0.4,0.6-1.2,0.7-1.8,0.4c-0.6-0.4-0.7-1.1-0.4-1.8c0.4-0.6,1.1-0.8,1.9-0.4C88.2,85.7,88.2,86.5,87.8,87L87.8,87z M97.2,95.4
	c-0.5,0.5-1.3,0.4-1.9-0.1c-0.5-0.5-0.4-1.3,0.1-1.9s1.3-0.5,1.9,0.1C97.7,94.2,97.7,95,97.2,95.4L97.2,95.4z M106.9,113.8
	c-0.7,0.2-1.4-0.2-1.7-0.8c-0.2-0.7,0.2-1.3,0.8-1.7c0.7-0.2,1.4,0.1,1.7,0.8C107.9,112.8,107.5,113.6,106.9,113.8L106.9,113.8z"/>
</svg>
