<?xml version="1.0" encoding="utf-8"?>
<!-- Generator: Adobe Illustrator 27.5.0, SVG Export Plug-In . SVG Version: 6.00 Build 0)  -->
<svg version="1.1" id="Layer_1" xmlns="http://www.w3.org/2000/svg" xmlns:xlink="http://www.w3.org/1999/xlink" x="0px" y="0px"
	 viewBox="0 0 252.9 194.5" style="enable-background:new 0 0 252.9 194.5;" xml:space="preserve">
<style type="text/css">
	.st0{fill:#808282;}
	.st1{fill:#163A65;}
</style>
<g>
	<path class="st0" d="M130.4,146c-0.8-1.4-0.5-3.1,0.8-4c1.3-0.9,3.1-0.5,4.1,0.6c1.1,1.3,0.8,3.2-0.7,4.2
		C133.2,147.9,131.3,147.4,130.4,146L130.4,146z"/>
	<path class="st0" d="M122.2,149.9c-0.6-1.7,0.2-3.1,1.6-3.8c1.4-0.7,3.1,0,3.9,1.4s0.1,3.3-1.5,4.1
		C124.6,152.4,122.8,151.4,122.2,149.9L122.2,149.9z"/>
	<path class="st0" d="M113.4,152.1c-0.2-1.7,1-3.2,2.3-3.4c1.4-0.3,3,0.5,3.4,2.1c0.4,1.6-0.6,3.2-2.3,3.7
		C115.1,154.9,113.6,153.7,113.4,152.1z"/>
	<path class="st0" d="M104.3,152.4c0.2-1.7,1.6-2.9,3-2.9c0.7,0.1,1.5,0.3,2,0.8c0.5,0.6,0.9,1.3,1,2c0,0.9-0.3,1.5-0.7,2.2
		c-0.6,0.5-1.3,1.1-2.2,0.9C105.4,155.4,104,153.9,104.3,152.4L104.3,152.4z"/>
	<path class="st0" d="M95.3,150.7c0.5-1.6,2.1-2.5,3.6-2.1c0.8,0.2,1.3,0.7,1.8,1.3c0.5,0.6,0.7,1.4,0.5,2.2c-0.2,0.8-0.6,1.5-1.2,2
		c-0.6,0.5-1.5,0.6-2.3,0.5C95.7,153.9,94.8,152.3,95.3,150.7L95.3,150.7z"/>
	<path class="st0" d="M86.8,147.2c0.8-1.5,2.5-2,3.8-1.5c1.3,0.7,2.1,2.3,1.5,3.8c-0.6,1.5-2.4,2.4-4.1,1.6
		C86.6,150.5,86.1,148.7,86.8,147.2z"/>
	<path class="st0" d="M79.3,142.1c1-1.2,2.9-1.5,4.2-0.6c0.7,0.5,1,1.1,1,1.9s0.1,1.5-0.4,2.2s-1.2,1.1-2,1.3
		c-0.8,0.2-1.6-0.1-2.3-0.6C78.4,145.1,78.2,143.3,79.3,142.1L79.3,142.1z"/>
	<path class="st0" d="M73,135.4c0.6-0.5,1.4-0.7,2.2-0.5c0.7,0.1,1.4,0.4,1.9,1c1,1.1,0.9,3.1-0.3,4.2c-1.2,1.1-3.1,1-4.3-0.1
		c-0.6-0.6-0.8-1.4-0.8-2.3C72,136.7,72.3,136,73,135.4L73,135.4z"/>
	<path class="st0" d="M68.2,127.6c0.7-0.4,1.6-0.4,2.2-0.2c0.3,0.1,0.6,0.3,1,0.6c0.2,0.3,0.6,0.4,0.7,0.8c0.8,1.2,0.3,3.2-1.1,4
		c-1.4,0.8-3.2,0.5-4-1.1c-0.2-0.4-0.4-0.9-0.4-1.2s0-0.9,0.1-1.2C67.1,128.6,67.5,128.1,68.2,127.6L68.2,127.6z"/>
	<path class="st0" d="M65.2,119.1c1.6-0.4,3.2,0.6,3.6,2s-0.4,3.1-1.9,3.7c-1.5,0.6-3.3-0.3-3.9-2C62.6,121.2,63.6,119.5,65.2,119.1
		L65.2,119.1z"/>
	<path class="st0" d="M63.9,110.1c1.6,0,3.1,1.3,3.2,2.7c0.1,1.5-0.8,2.9-2.6,3.2c-1.5,0.3-3.2-1-3.4-2.7
		C61,111.6,62.3,110.1,63.9,110.1L63.9,110.1z"/>
	<path class="st0" d="M142.9,148.3c-0.8-1.1-0.9-2.5,0.1-3.4c0.9-0.9,2.4-1,3.4,0s1.1,2.6,0.1,3.6
		C145.4,149.3,143.8,149.3,142.9,148.3L142.9,148.3z"/>
	<path class="st0" d="M129.7,157c-0.5-1.3-0.1-2.7,1.2-3.3c1.1-0.6,2.6-0.2,3.2,1c0.6,1.1,0.3,2.8-1,3.3
		C131.8,158.8,130.3,158.1,129.7,157L129.7,157z"/>
	<path class="st0" d="M114.6,161.3c-0.2-1.3,0.7-2.6,2-2.8s2.5,0.5,2.8,1.9c0.3,1.4-0.6,2.8-1.9,3
		C116,163.5,114.7,162.7,114.6,161.3L114.6,161.3z"/>
	<path class="st0" d="M106.6,161.8c0-1.4,1.2-2.4,2.4-2.4s2.5,1,2.6,2.3c0.2,1.3-1,2.5-2.3,2.6C107.7,164.4,106.7,163.1,106.6,161.8
		L106.6,161.8z"/>
	<path class="st0" d="M91.1,159.2c0.3-0.6,0.7-1.2,1.2-1.5c0.2-0.1,0.6-0.1,0.8-0.2c0.4,0,0.6-0.1,0.9,0c1.3,0.4,2,1.6,1.8,2.9
		c-0.4,1.3-1.6,2.2-3.1,1.8c-0.3-0.1-0.6-0.3-0.9-0.4c-0.2-0.3-0.5-0.6-0.6-0.8C90.9,160.5,90.8,159.8,91.1,159.2L91.1,159.2z"/>
	<path class="st0" d="M83.7,156.1c0.7-1.2,2.1-1.6,3.2-1.2c1.2,0.7,1.7,2,1.2,3.2c-0.5,1.2-2,1.9-3.3,1.4
		C83.7,158.8,83.2,157.4,83.7,156.1z"/>
	<path class="st0" d="M70.9,147.1c1-1,2.6-1.1,3.5-0.2c0.9,0.9,1.1,2.4,0.2,3.5c-0.8,1.1-2.5,1.3-3.5,0.3
		C70.1,149.6,69.9,148.1,70.9,147.1L70.9,147.1z"/>
	<path class="st0" d="M65.6,141.1c1.1-0.8,2.6-0.6,3.4,0.3s0.8,2.5-0.2,3.5c-1,1-2.5,0.8-3.5-0.2C64.3,143.6,64.6,142,65.6,141.1
		L65.6,141.1z"/>
	<path class="st0" d="M61.2,134.5c1.1-0.6,2.7-0.3,3.4,0.9c0.3,0.5,0.4,1.2,0.3,1.9s-0.5,1.2-1,1.6c-0.5,0.3-1.3,0.5-1.9,0.3
		c-0.7-0.1-1.2-0.5-1.5-1.2C59.6,136.7,60,135.2,61.2,134.5L61.2,134.5z"/>
	<path class="st0" d="M57.9,127.3c1.3-0.5,2.6,0.2,3.2,1.3c0.6,1.1,0,2.7-1.2,3.3s-2.7,0-3.3-1.2C56,129.3,56.6,127.7,57.9,127.3z"
		/>
	<path class="st0" d="M55.6,119.8c1.4-0.3,2.6,0.6,3,1.8c0.4,1.2-0.6,2.6-1.8,3c-1.2,0.4-2.7-0.4-3-1.8
		C53.5,121.4,54.5,120,55.6,119.8L55.6,119.8z"/>
	<path class="st0" d="M54.8,111.9c1.3,0,2.5,0.9,2.5,2.1c0.2,1.3-0.6,2.4-2,2.8c-1.3,0.2-2.6-0.7-2.8-2.2
		C52.2,113.2,53.3,112,54.8,111.9L54.8,111.9z"/>
	<path class="st0" d="M149,153.6c-0.7-0.8-0.7-2.1,0.1-2.8c0.7-0.8,2-0.8,2.9-0.1c0.9,0.7,0.9,2.2,0,3.1
		C151.1,154.5,149.9,154.5,149,153.6L149,153.6z"/>
	<path class="st0" d="M143.9,158c-0.7-1-0.5-2.2,0.5-2.9c0.9-0.5,2-0.6,2.9,0.3c0.7,0.8,0.7,2.3-0.3,2.9
		C145.9,159,144.7,158.9,143.9,158L143.9,158z"/>
	<path class="st0" d="M119.9,168.8c-0.2-1.2,0.4-2.3,1.5-2.4c1-0.3,2.2,0.4,2.4,1.5c0.2,1.2-0.4,2.2-1.5,2.4
		C121.3,170.6,120.2,169.8,119.9,168.8z"/>
	<path class="st0" d="M87.3,166.4c0.4-1.1,1.6-1.7,2.5-1.3c1.1,0.4,1.6,1.4,1.3,2.5c-0.3,1.1-1.5,1.9-2.6,1.5
		C87.7,168.7,87,167.6,87.3,166.4z"/>
	<path class="st0" d="M70.1,157c0.7-0.9,1.9-1.2,2.9-0.4c0.8,0.7,1,1.9,0.4,2.9c-0.6,1-1.9,1.2-2.9,0.6
		C69.5,159.2,69.3,157.9,70.1,157z"/>
	<path class="st0" d="M56.6,142.6c0.9-0.5,2.3-0.3,2.9,0.5c0.6,0.8,0.4,2.1-0.5,2.9c-0.8,0.7-2.2,0.5-2.9-0.5
		C55.3,144.4,55.7,143.1,56.6,142.6L56.6,142.6z"/>
	<path class="st0" d="M48.5,124.4c1.2-0.2,2.2,0.4,2.5,1.4c0.2,1.2-0.2,2.2-1.3,2.7s-2.2-0.2-2.7-1.3
		C46.8,125.8,47.4,124.8,48.5,124.4L48.5,124.4z"/>
	<path class="st0" d="M46.5,111.3c1.1-0.1,2.1,0.9,2.1,1.9c-0.1,1-0.8,2-2,2.2c-1.1,0.1-2.1-0.7-2.3-1.8
		C44.5,112.5,45.4,111.4,46.5,111.3L46.5,111.3z"/>
	<path class="st0" d="M156,157.8c-0.8-0.7-0.8-2-0.1-2.7c0.7-0.8,2-0.8,2.7-0.1c0.8,0.7,0.8,2,0.1,2.7
		C158.1,158.5,156.8,158.5,156,157.8z"/>
	<path class="st0" d="M146.7,165.6c-0.5-0.9-0.4-2,0.4-2.7c0.8-0.6,2-0.4,2.7,0.4c0.6,0.8,0.4,2-0.4,2.7
		C148.6,166.8,147.3,166.4,146.7,165.6z"/>
	<path class="st0" d="M136.1,171.5c-0.5-0.9,0-2.2,0.9-2.5c0.9-0.4,2-0.1,2.5,0.9c0.5,0.9,0.1,2-0.9,2.5
		C137.6,172.8,136.5,172.5,136.1,171.5z"/>
	<path class="st0" d="M118.6,176.8c-0.1-1,0.5-2,1.5-2.3c1-0.1,2,0.5,2.3,1.5c0.3,1-0.4,2.2-1.5,2.3
		C119.8,178.6,118.9,177.8,118.6,176.8z"/>
	<path class="st0" d="M94.5,176.6c0.2-1,1.2-1.7,2.3-1.6c1,0.1,1.7,1.1,1.6,2.1c-0.1,1-1.1,1.7-2.1,1.6
		C94.9,178.5,94.2,177.5,94.5,176.6L94.5,176.6z"/>
	<path class="st0" d="M77.2,170.7c0.4-0.9,1.6-1.3,2.5-0.9c0.9,0.4,1.3,1.6,0.9,2.5c-0.4,0.9-1.5,1.4-2.5,0.9
		C77.1,172.6,76.6,171.5,77.2,170.7z"/>
	<path class="st0" d="M71.7,167.7c0.5-0.9,1.8-1.2,2.6-0.7c0.9,0.5,1.1,1.7,0.7,2.6c-0.6,1-1.6,1.3-2.6,0.7
		C71.6,169.8,71.2,168.6,71.7,167.7L71.7,167.7z"/>
	<path class="st0" d="M53.6,151.6c0.8-0.7,2-0.4,2.6,0.2c0.7,0.8,0.7,1.9-0.2,2.6c-0.8,0.7-2,0.6-2.8-0.2
		C52.6,153.5,52.8,152.3,53.6,151.6L53.6,151.6z"/>
	<path class="st0" d="M50.1,146.7c0.8-0.6,2.1-0.4,2.7,0.4c0.6,0.8,0.4,2-0.4,2.7c-0.8,0.6-2,0.4-2.7-0.4
		C48.9,148.6,49.1,147.4,50.1,146.7z"/>
	<path class="st0" d="M46.9,141.5c0.9-0.5,2.1-0.2,2.6,0.7c0.5,0.9,0.2,2.1-0.7,2.6c-0.9,0.5-2.1,0.2-2.6-0.7
		C45.6,143.1,45.9,142,46.9,141.5z"/>
	<path class="st0" d="M42.1,130.3c1-0.3,2.1,0.1,2.4,1.2c0.3,1-0.1,2.1-1.2,2.4c-1,0.3-2.1-0.1-2.4-1.2S41.1,130.6,42.1,130.3z"/>
	<path class="st0" d="M40.4,124.4c1-0.3,2,0.3,2.3,1.3c0.3,1-0.3,2-1.3,2.3s-2-0.3-2.3-1.3C38.8,125.7,39.5,124.6,40.4,124.4z"/>
	<path class="st0" d="M38.7,106.3c1,0.1,1.8,0.9,1.9,1.9c0,0.5-0.2,1-0.6,1.4c-0.3,0.4-0.8,0.6-1.3,0.5c-0.5,0-1-0.2-1.4-0.6
		c-0.4-0.3-0.6-0.8-0.5-1.3C36.8,107.1,37.7,106.3,38.7,106.3L38.7,106.3z"/>
	<path class="st0" d="M39.3,100.3c1,0.1,1.7,1.1,1.6,2.1c-0.2,1-0.9,1.8-2,1.7c-1-0.1-1.9-1-1.8-2.2C37.2,100.9,38.3,100,39.3,100.3
		L39.3,100.3z"/>
	<path class="st0" d="M165.7,157.9c-0.9-0.7-1-2-0.4-3c0.7-0.9,2-1,3-0.4c0.9,0.7,1.1,2.1,0.4,3
		C167.8,158.5,166.5,158.7,165.7,157.9L165.7,157.9z"/>
	<path class="st0" d="M161.2,162.8c-0.7-0.8-0.9-2.2-0.1-2.9c0.8-0.7,2.2-0.9,2.9-0.1c0.9,0.7,0.9,2.2,0.1,2.9
		C163.3,163.7,161.9,163.6,161.2,162.8L161.2,162.8z"/>
	<path class="st0" d="M145,175c-0.5-0.9-0.2-2.2,0.8-2.9c0.9-0.5,2.3-0.3,3,0.7s0.3,2.3-0.7,3C147,176.3,145.7,176,145,175z"/>
	<path class="st0" d="M113.2,184.6c-0.1-1.1,0.7-2.2,1.8-2.3c1.1-0.1,2.1,0.7,2.3,1.8c0.1,1.1-0.7,2.2-1.8,2.3
		C114.2,186.7,113.3,185.8,113.2,184.6L113.2,184.6z"/>
	<path class="st0" d="M86.5,181.9c0.3-1.1,1.4-1.7,2.6-1.5c1,0.2,1.7,1.4,1.5,2.6c-0.3,1.1-1.5,1.9-2.6,1.5
		C86.8,184.2,86.2,183,86.5,181.9L86.5,181.9z"/>
	<path class="st0" d="M74,177.1c0.4-1.1,1.7-1.5,2.8-1s1.5,1.7,1,2.8s-1.7,1.5-2.8,1C73.9,179.4,73.5,178.1,74,177.1L74,177.1z"/>
	<path class="st0" d="M44.1,150.7c1-0.7,2.3-0.3,2.9,0.5c0.7,1,0.4,2.1-0.5,2.9c-1,0.7-2.2,0.5-3-0.5
		C42.7,152.5,43.2,151.2,44.1,150.7L44.1,150.7z"/>
	<path class="st0" d="M35.3,132.5c1.1-0.5,2.2,0.2,2.7,1.3c0.5,1.1-0.2,2.2-1.3,2.7c-1.1,0.5-2.3-0.1-2.7-1.3
		C33.7,134.1,34.3,132.8,35.3,132.5L35.3,132.5z"/>
	<path class="st0" d="M32.1,99.3c1.2,0.1,2,1.2,1.9,2.2c-0.1,1.2-1.1,1.9-2.2,1.9c-1.2-0.1-2.1-1-1.9-2.2
		C30,100,31.1,99.2,32.1,99.3L32.1,99.3z"/>
</g>
<g>
	<path class="st1" d="M109.4,135.5l-20-7.7c-1.3-0.5-2.8-0.1-3.8,0.9c-0.9,1-1.2,2.6-0.5,3.8l12.2,24.9c0.6,1.2,1.8,1.9,3.1,1.9
		l0.1,0c1.3,0,2.5-0.8,3.1-2l7.7-17.1c0.4-0.9,0.4-1.8,0.1-2.7C111,136.5,110.3,135.9,109.4,135.5z"/>
	<path class="st1" d="M206.1,13.8c-1-0.9-2.5-1-3.7-0.4l-68.2,33.8c7.4,1.2,14.1,4.3,19.7,8.9L89.2,106c-2.4-5.3-3.7-11.2-3.7-17.3
		c0-7.1,1.8-13.7,4.9-19.6L41.6,93.2c-1.2,0.6-2,1.9-1.9,3.3c0.1,1.4,1,2.6,2.3,3l42.2,14.8c1.1,0.4,2.3,0.2,3.3-0.5l88.4-70.6
		l0.7,0.4l-70.9,74.3c-0.8,0.8-1.1,1.9-0.9,3c0.2,1.1,0.9,2,2,2.5l58.2,26.2c0.4,0.2,0.9,0.3,1.4,0.3l0,0c1.5,0,2.9-1,3.3-2.5
		l37.6-130C207.6,16.1,207.2,14.7,206.1,13.8z"/>
</g>
<circle class="st1" cx="100.9" cy="37.8" r="26.5"/>
</svg>
