<svg width="261" height="66" viewBox="0 0 261 66" fill="none" xmlns="http://www.w3.org/2000/svg" xmlns:xlink="http://www.w3.org/1999/xlink">
<symbol id="logo-symbol-wordmark">
<g id="Foreground">
	<g fill="currentColor">
	<path class="st0" d="M40.3,17.7h19.4l0.1,31H48v-5.1H33.4l-5.5,5.1H15L40.3,17.7z M48,36.7V25.9l-9.7,10.8L48,36.7L48,36.7z"/>
	<path class="st0" d="M62.5,17.7h13.1v23.4h14.3v7.5H62.5C62.5,48.6,62.5,17.7,62.5,17.7z"/>
	<path class="st0" d="M91.6,17.7h13.1v23.4H119v7.5H91.6C91.6,48.6,91.6,17.7,91.6,17.7z"/>
	<path class="st0" d="M141.7,48.6h-13.2v-10h-10.3c-6.6,0-11.7-2.7-11.7-10.3c0-8.1,5.3-10.9,12.8-10.9h22.3V48.6z M128.6,23.9h-4
		c-3.8,0-5.1,1.3-5.1,3.9c0,3.1,1.7,4.1,6.4,4.1h2.7V23.9z"/>
	<path class="st0" d="M144.4,17.3h29.9v6.6h-17.2v5.8h16.2v6.6h-16.2V42h17.4v6.6h-30.1V17.3z"/>
	<path class="st0" d="M177.3,17.3h29.9v6.6H190v5.8h16.2v6.6H190V42h17.4v6.6h-30.1V17.3z"/>
	<path class="st0" d="M210.9,17.3h22.3c7.5,0,12.8,2.7,12.8,10.9c0,7.6-5.1,10.3-11.7,10.3H224v10h-13.2L210.9,17.3L210.9,17.3z
		 M224,32h2.7c4.7,0,6.4-1,6.4-4.1c0-2.6-1.3-3.9-5.1-3.9h-4L224,32L224,32z"/>
	</g>
</g></symbol><use xlink:href="#logo-symbol-wordmark"/>
</svg>
