<svg xmlns="http://www.w3.org/2000/svg" xmlns:xlink="http://www.w3.org/1999/xlink" width="79" height="79" viewBox="0 0 79 75"><symbol id="logo-symbol-icon"><g id="Layer_3"><path d="m135.4,106.7L0,217v282.4h97l4.8-32.9,114-92.9,31.2,38.3,84.9-69.2L135.4,106.7Zm-38.7,278.2l7.6-144.7,67.9,83.2-75.5,61.5Z"/><path d="m267.6,0l-110.8,89.4-.1-.1-11.2,9.1,196.6,236.1,2.6-2.2,7.8-6.3-.1-.1,82.1-68.6-61.7-75.7,79.6-64.8c23.6-19.3,41.1-40.6,48.1-63.8V0h-232.9Zm84.8,116h0l-19.9,16.2c1.6-1.3-47-61-49.5-61l29.7-24.2c28.2-23,46.2-21.2,62.3-1.5,18.8,23.1,13.9,40.8-22.6,70.5Z"/></g></symnbol></svg>
