<?xml version="1.0" encoding="utf-8"?>
<!-- Generator: Adobe Illustrator 26.5.0, SVG Export Plug-In . SVG Version: 6.00 Build 0)  -->
<svg version="1.1" id="Layer_2_00000078015003645862063670000008535468255680869803_"
	 xmlns="http://www.w3.org/2000/svg" xmlns:xlink="http://www.w3.org/1999/xlink" x="0px" y="0px" viewBox="0 0 106.8 54.4"
	 style="enable-background:new 0 0 106.8 54.4;" xml:space="preserve">
<style type="text/css">
	.st0{fill:#818383;}
	.st1{fill:#0E3967;}
</style>
<g id="Foreground">
	<g>
		<path class="st0" d="M35.5,31.6c0.8,0.6,1,1.6,0.5,2.4c-0.5,0.8-1.6,1-2.4,0.6c-0.9-0.5-1.2-1.6-0.6-2.5
			C33.5,31.2,34.7,31,35.5,31.6L35.5,31.6z"/>
		<path class="st0" d="M39.2,27.5c0.7,0.8,0.6,1.8,0,2.5c-0.6,0.7-1.7,0.7-2.5,0.1c-0.8-0.6-0.8-1.8-0.1-2.6
			C37.3,26.7,38.5,26.8,39.2,27.5L39.2,27.5z"/>
		<path class="st0" d="M43.6,24.3c0.5,0.9,0.2,2-0.5,2.4c-0.7,0.5-1.8,0.4-2.4-0.4c-0.6-0.8-0.4-1.9,0.4-2.6
			C42,23.1,43.1,23.4,43.6,24.3z"/>
		<path class="st0" d="M48.6,22c0.3,1-0.2,2-1,2.3c-0.4,0.1-0.9,0.2-1.3,0c-0.4-0.2-0.8-0.5-1-0.9c-0.2-0.5-0.2-0.9-0.1-1.4
			c0.2-0.4,0.5-0.9,1-1C47.3,20.6,48.4,21.1,48.6,22L48.6,22z"/>
		<path class="st0" d="M54,20.9c0.1,1-0.6,1.9-1.5,2c-0.5,0.1-0.9-0.1-1.3-0.3c-0.4-0.2-0.7-0.6-0.8-1.1c-0.1-0.5,0-1,0.2-1.4
			c0.2-0.4,0.7-0.7,1.2-0.8C53,19.2,53.9,19.9,54,20.9L54,20.9z"/>
		<path class="st0" d="M59.5,20.9c-0.1,1-0.9,1.7-1.8,1.7c-0.9-0.1-1.7-0.8-1.7-1.8c0-1,0.8-1.9,1.9-1.8
			C58.9,19,59.6,19.9,59.5,20.9z"/>
		<path class="st0" d="M64.9,22c-0.3,0.9-1.3,1.5-2.2,1.3c-0.5-0.1-0.8-0.4-1-0.8c-0.2-0.4-0.4-0.8-0.3-1.3s0.4-0.9,0.8-1.2
			s0.9-0.3,1.4-0.2C64.7,20.1,65.2,21.1,64.9,22L64.9,22z"/>
		<path class="st0" d="M69.9,24.3c-0.2,0.4-0.6,0.7-1.1,0.8c-0.4,0.1-0.9,0.1-1.3-0.1c-0.8-0.4-1.2-1.5-0.8-2.4
			c0.4-0.9,1.5-1.3,2.4-0.9c0.5,0.2,0.8,0.6,1,1.1C70.2,23.3,70.2,23.8,69.9,24.3L69.9,24.3z"/>
		<path class="st0" d="M74.4,27.5c-0.3,0.4-0.8,0.6-1.2,0.6c-0.2,0-0.4,0-0.7-0.1c-0.2-0.1-0.4-0.1-0.6-0.3
			c-0.7-0.5-0.9-1.7-0.3-2.5s1.7-1,2.5-0.3c0.2,0.2,0.4,0.4,0.5,0.6c0.1,0.2,0.2,0.5,0.2,0.7C74.8,26.7,74.7,27.1,74.4,27.5
			L74.4,27.5z"/>
		<path class="st0" d="M78,31.6c-0.8,0.6-1.9,0.4-2.5-0.3c-0.6-0.7-0.5-1.8,0.2-2.5c0.7-0.7,1.9-0.6,2.6,0.2
			C79,29.8,78.8,31,78,31.6L78,31.6z"/>
		<path class="st0" d="M80.8,36.3c-0.9,0.4-2,0-2.4-0.8c-0.4-0.8-0.2-1.8,0.7-2.4c0.8-0.5,2-0.2,2.5,0.7
			C82.1,34.8,81.7,35.9,80.8,36.3L80.8,36.3z"/>
		<path class="st0" d="M28,33.2c0.7,0.4,1.1,1.2,0.7,1.9c-0.3,0.7-1.1,1.1-1.9,0.8c-0.8-0.3-1.2-1.2-0.9-2
			C26.4,33.2,27.3,32.8,28,33.2L28,33.2z"/>
		<path class="st0" d="M33.4,25.3c0.6,0.6,0.7,1.5,0.1,2.1c-0.5,0.6-1.4,0.7-2,0.2c-0.6-0.5-0.8-1.5-0.2-2.1
			C31.8,24.8,32.8,24.8,33.4,25.3L33.4,25.3z"/>
		<path class="st0" d="M40.8,19.4c0.4,0.7,0.2,1.6-0.5,2c-0.7,0.4-1.5,0.3-2-0.4c-0.5-0.7-0.3-1.7,0.4-2.1
			C39.5,18.5,40.4,18.7,40.8,19.4L40.8,19.4z"/>
		<path class="st0" d="M45.1,17.3c0.3,0.8-0.1,1.6-0.8,1.9c-0.7,0.3-1.6,0-2-0.7s0-1.6,0.7-2C43.9,16.1,44.8,16.6,45.1,17.3
			L45.1,17.3z"/>
		<path class="st0" d="M54.4,15.2c0,0.4-0.1,0.8-0.3,1.1c-0.1,0.1-0.3,0.2-0.4,0.3c-0.2,0.1-0.3,0.2-0.5,0.2
			c-0.8,0.1-1.5-0.4-1.7-1.2c-0.1-0.8,0.4-1.6,1.3-1.7c0.2,0,0.4,0,0.6,0c0.2,0.1,0.4,0.2,0.5,0.3C54.2,14.4,54.4,14.8,54.4,15.2
			L54.4,15.2z"/>
		<path class="st0" d="M59.2,15.2c-0.1,0.8-0.8,1.4-1.5,1.4c-0.8-0.1-1.4-0.7-1.4-1.5s0.7-1.5,1.5-1.5
			C58.6,13.7,59.2,14.4,59.2,15.2z"/>
		<path class="st0" d="M68.4,17.3c-0.3,0.8-1.2,1.2-1.9,0.9c-0.7-0.3-1.2-1.1-0.9-1.9c0.2-0.8,1.1-1.3,1.9-1
			C68.3,15.7,68.7,16.5,68.4,17.3L68.4,17.3z"/>
		<path class="st0" d="M72.7,19.4c-0.4,0.7-1.3,0.9-2,0.6c-0.7-0.3-1-1.2-0.7-2s1.2-1,2-0.7C72.9,17.7,73.1,18.7,72.7,19.4
			L72.7,19.4z"/>
		<path class="st0" d="M76.7,22.1c-0.5,0.6-1.4,0.8-2.1,0.3c-0.3-0.2-0.5-0.6-0.6-1c-0.1-0.4,0-0.8,0.2-1.1c0.2-0.3,0.6-0.6,1-0.6
			c0.4-0.1,0.8,0,1.1,0.3C77.1,20.5,77.2,21.4,76.7,22.1L76.7,22.1z"/>
		<path class="st0" d="M80.2,25.3c-0.6,0.6-1.5,0.5-2.1,0c-0.6-0.5-0.6-1.5-0.1-2.1c0.5-0.6,1.5-0.6,2.1-0.1
			C80.8,23.8,80.8,24.8,80.2,25.3z"/>
		<path class="st0" d="M83.2,29c-0.7,0.5-1.6,0.3-2.1-0.3c-0.5-0.6-0.3-1.6,0.3-2.1c0.6-0.5,1.6-0.4,2.1,0.3
			C84,27.6,83.8,28.6,83.2,29L83.2,29z"/>
		<path class="st0" d="M85.5,33.2c-0.7,0.3-1.6,0.1-1.9-0.6c-0.4-0.7-0.2-1.5,0.5-2c0.7-0.4,1.6-0.2,2.1,0.6
			C86.6,31.9,86.3,32.8,85.5,33.2L85.5,33.2z"/>
		<path class="st0" d="M23.4,31.6c0.6,0.3,0.9,1,0.6,1.6c-0.2,0.6-0.9,0.9-1.6,0.7s-1-1-0.7-1.7C22,31.6,22.7,31.3,23.4,31.6
			L23.4,31.6z"/>
		<path class="st0" d="M25.2,28c0.6,0.4,0.8,1.1,0.4,1.7c-0.4,0.5-1,0.8-1.7,0.5c-0.6-0.3-0.9-1.1-0.5-1.7
			C23.9,27.9,24.6,27.7,25.2,28L25.2,28z"/>
		<path class="st0" d="M36.1,16.5c0.4,0.6,0.3,1.4-0.3,1.7c-0.5,0.4-1.3,0.3-1.7-0.3s-0.3-1.3,0.3-1.7C34.9,15.8,35.7,16,36.1,16.5z
			"/>
		<path class="st0" d="M54.8,10.3c0,0.7-0.5,1.3-1.1,1.3c-0.7,0-1.2-0.4-1.3-1.1c-0.1-0.7,0.4-1.4,1.1-1.4
			C54.1,9.1,54.7,9.6,54.8,10.3z"/>
		<path class="st0" d="M66.6,11.6c-0.2,0.7-0.8,1.1-1.5,0.9c-0.6-0.2-1-0.8-0.9-1.5S65,9.9,65.7,10C66.4,10.2,66.8,10.9,66.6,11.6z"
			/>
		<path class="st0" d="M77.4,16.5c-0.4,0.5-1.2,0.7-1.7,0.4s-0.7-1.1-0.4-1.7s1.1-0.8,1.7-0.4C77.7,15.2,77.8,16,77.4,16.5
			L77.4,16.5z"/>
		<path class="st0" d="M86.1,24.8c-0.6,0.4-1.3,0.3-1.7-0.2C84,24,84,23.3,84.5,22.8c0.5-0.5,1.3-0.4,1.8,0.1
			C86.7,23.6,86.6,24.3,86.1,24.8L86.1,24.8z"/>
		<path class="st0" d="M90.2,31.6c-0.6,0.3-1.4,0-1.6-0.6s0-1.3,0.6-1.7c0.6-0.3,1.3-0.1,1.7,0.5C91.1,30.5,90.8,31.3,90.2,31.6
			L90.2,31.6z"/>
		<path class="st0" d="M18.5,30.9c0.6,0.2,0.9,0.9,0.7,1.5c-0.2,0.6-0.9,0.9-1.5,0.7c-0.6-0.2-0.9-0.9-0.7-1.5
			C17.2,31,17.9,30.7,18.5,30.9z"/>
		<path class="st0" d="M21.9,24.4c0.5,0.4,0.7,1,0.4,1.6c-0.3,0.5-1,0.7-1.6,0.4c-0.5-0.3-0.7-1-0.4-1.6S21.4,24.1,21.9,24.4z"/>
		<path class="st0" d="M26.5,18.7c0.5,0.4,0.5,1.2,0.1,1.6s-1.1,0.5-1.6,0.1s-0.5-1.1-0.1-1.6C25.3,18.3,26,18.2,26.5,18.7z"/>
		<path class="st0" d="M35,11.7c0.3,0.5,0.2,1.2-0.3,1.6c-0.5,0.3-1.2,0.2-1.6-0.3c-0.4-0.5-0.3-1.3,0.3-1.6
			C33.9,11,34.6,11.2,35,11.7z"/>
		<path class="st0" d="M48.5,6.3c0.1,0.6-0.3,1.2-0.9,1.4c-0.6,0.2-1.2-0.2-1.4-0.8s0.2-1.2,0.8-1.4C47.8,5.3,48.4,5.7,48.5,6.3
			L48.5,6.3z"/>
		<path class="st0" d="M59.5,5.6c0,0.6-0.6,1.1-1.2,1.1c-0.6,0-1.1-0.6-1.1-1.2s0.5-1.1,1.2-1.1C59.1,4.5,59.6,5,59.5,5.6z"/>
		<path class="st0" d="M63.2,6c-0.1,0.6-0.7,1.1-1.3,1c-0.6-0.1-1-0.7-1-1.3c0.1-0.7,0.6-1.1,1.3-1C62.8,4.8,63.3,5.4,63.2,6L63.2,6
			z"/>
		<path class="st0" d="M77,10.8c-0.3,0.6-1,0.7-1.5,0.5c-0.6-0.3-0.8-0.9-0.5-1.5c0.3-0.6,1-0.8,1.6-0.5C77.1,9.5,77.3,10.2,77,10.8
			L77,10.8z"/>
		<path class="st0" d="M80.1,12.7c-0.3,0.5-1.1,0.7-1.6,0.4c-0.5-0.3-0.7-1-0.4-1.6c0.3-0.5,1-0.7,1.6-0.4S80.5,12.1,80.1,12.7z"/>
		<path class="st0" d="M83.1,14.9c-0.4,0.5-1.1,0.6-1.6,0.2c-0.5-0.4-0.6-1.1-0.2-1.6s1.1-0.6,1.6-0.2
			C83.4,13.7,83.5,14.4,83.1,14.9z"/>
		<path class="st0" d="M88.3,20c-0.5,0.4-1.2,0.4-1.6-0.1s-0.4-1.2,0.1-1.6s1.2-0.4,1.6,0.1S88.8,19.6,88.3,20z"/>
		<path class="st0" d="M90.6,22.9c-0.5,0.4-1.2,0.3-1.6-0.2c-0.4-0.5-0.3-1.2,0.2-1.6c0.5-0.4,1.2-0.3,1.6,0.2
			C91.2,21.8,91.1,22.6,90.6,22.9z"/>
		<path class="st0" d="M95.7,32.6c-0.6,0.2-1.2-0.1-1.5-0.6c-0.1-0.3-0.1-0.6,0-0.9c0.1-0.3,0.3-0.5,0.6-0.6c0.3-0.1,0.6-0.1,0.9,0
			c0.3,0.1,0.5,0.3,0.6,0.6C96.6,31.7,96.3,32.4,95.7,32.6L95.7,32.6z"/>
		<path class="st0" d="M96.8,36.1c-0.6,0.2-1.2-0.2-1.4-0.8c-0.1-0.6,0.1-1.2,0.7-1.4c0.6-0.2,1.3,0.1,1.5,0.8
			C97.8,35.3,97.4,36,96.8,36.1L96.8,36.1z"/>
		<path class="st0" d="M13.1,33.1c0.7,0.2,1,0.9,0.9,1.6c-0.2,0.7-0.9,1-1.6,0.9c-0.7-0.2-1.1-0.9-0.9-1.6
			C11.8,33.2,12.5,32.8,13.1,33.1L13.1,33.1z"/>
		<path class="st0" d="M14.5,29.3c0.6,0.3,1,1,0.7,1.6c-0.3,0.6-1,1-1.6,0.7c-0.7-0.2-1-1-0.7-1.6C13.1,29.3,13.9,29,14.5,29.3
			L14.5,29.3z"/>
		<path class="st0" d="M20.7,18.8c0.5,0.4,0.6,1.2,0.2,1.8c-0.4,0.5-1.2,0.7-1.8,0.3c-0.6-0.4-0.7-1.2-0.3-1.8
			C19.3,18.5,20.1,18.4,20.7,18.8z"/>
		<path class="st0" d="M36.2,6.1c0.3,0.6,0.1,1.4-0.5,1.7c-0.6,0.3-1.3,0.1-1.7-0.5c-0.3-0.6-0.1-1.4,0.5-1.7
			C35.2,5.2,35.9,5.5,36.2,6.1L36.2,6.1z"/>
		<path class="st0" d="M51.7,1.5c0.1,0.7-0.4,1.3-1.1,1.4C50,3,49.3,2.5,49.2,1.8s0.4-1.4,1.1-1.4C51,0.3,51.6,0.8,51.7,1.5
			L51.7,1.5z"/>
		<path class="st0" d="M59.8,1.3c0,0.7-0.6,1.2-1.3,1.2c-0.7,0-1.2-0.6-1.2-1.3S57.9,0,58.6,0C59.3,0,59.8,0.6,59.8,1.3L59.8,1.3z"
			/>
		<path class="st0" d="M82.5,9.1c-0.4,0.6-1.2,0.7-1.7,0.4c-0.6-0.4-0.7-1.1-0.4-1.7c0.4-0.6,1.1-0.8,1.8-0.4S82.9,8.6,82.5,9.1
			L82.5,9.1z"/>
		<path class="st0" d="M91.6,17.2c-0.5,0.5-1.3,0.4-1.8-0.1c-0.5-0.5-0.4-1.3,0.1-1.8c0.5-0.5,1.3-0.5,1.8,0.1
			C92.1,16,92.1,16.8,91.6,17.2L91.6,17.2z"/>
		<path class="st0" d="M101,35c-0.7,0.2-1.4-0.2-1.6-0.8c-0.2-0.7,0.2-1.3,0.8-1.6c0.7-0.2,1.4,0.1,1.6,0.8
			C102,34.1,101.6,34.8,101,35L101,35z"/>
	</g>
	<g>
		<path class="st1" d="M11.7,40h9l0.1,14.3h-5.5V52H8.5l-2.6,2.4H0L11.7,40z M15.2,48.9v-5l-4.5,5H15.2z"/>
		<path class="st1" d="M22,40h6v10.8h6.6v3.5H22L22,40L22,40z"/>
		<path class="st1" d="M35.4,40h6v10.8h6.6v3.5H35.4V40L35.4,40z"/>
		<path class="st1" d="M58.6,54.3h-6.1v-4.6h-4.8c-3,0-5.4-1.3-5.4-4.8c0-3.8,2.4-5,5.9-5h10.3V54.3L58.6,54.3z M52.5,42.9h-1.8
			c-1.7,0-2.3,0.6-2.3,1.8c0,1.4,0.8,1.9,2.9,1.9h1.2V42.9z"/>
		<path class="st1" d="M59.8,39.9h13.8v3h-8v2.7h7.5v3h-7.5v2.7h8.1v3H59.8V39.9L59.8,39.9z"/>
		<path class="st1" d="M75.1,39.9h13.8v3h-8v2.7h7.5v3h-7.5v2.7H89v3H75.1V39.9L75.1,39.9z"/>
		<path class="st1" d="M90.6,39.9h10.3c3.5,0,5.9,1.3,5.9,5c0,3.5-2.3,4.8-5.4,4.8h-4.8v4.6h-6.1V39.9L90.6,39.9z M96.6,46.7h1.2
			c2.2,0,2.9-0.5,2.9-1.9c0-1.2-0.6-1.8-2.3-1.8h-1.8C96.7,42.9,96.7,46.7,96.6,46.7z"/>
	</g>
</g>
</svg>
