<svg xmlns="http://www.w3.org/2000/svg" xmlns:xlink="http://www.w3.org/1999/xlink" width="79" height="79" viewBox="0 0 79 75"><symbol id="logo-symbol-icon">
<g>
	<path d="M134.9,106.7L-0.5,217v282.4h97l4.8-32.9l114-92.9l31.2,38.3l84.9-69.2L134.9,106.7z M96.2,384.9l7.6-144.7l67.9,83.2
		L96.2,384.9z"/>
	<path d="M267.1,0L156.3,89.4l-0.1-0.1L145,98.4l196.6,236.1l2.6-2.2l7.8-6.3l-0.1-0.1l82.1-68.6l-61.7-75.7l79.6-64.8
		C475.5,97.5,493,76.2,500,53V0H267.1z M351.9,116L351.9,116l-19.9,16.2c1.6-1.3-47-61-49.5-61L312.2,47c28.2-23,46.2-21.2,62.3-1.5
		C393.3,68.6,388.4,86.3,351.9,116z"/>
</g></symbol><use xlink:href="#logo-symbol-icon" style="color:#1C1B1A;" />
</svg>
