<?xml version="1.0" encoding="UTF-8" standalone="no"?>
<svg
   version="1.0"
   width="900.000000pt"
   height="900.000000pt"
   viewBox="0 0 900.000000 900.000000"
   preserveAspectRatio="xMidYMid meet"
   id="svg38"
   sodipodi:docname="app-icon.svg"
   inkscape:version="1.1.2 (0a00cf5339, 2022-02-04)"
   xmlns:inkscape="http://www.inkscape.org/namespaces/inkscape"
   xmlns:sodipodi="http://sodipodi.sourceforge.net/DTD/sodipodi-0.dtd"
   xmlns="http://www.w3.org/2000/svg"
   xmlns:svg="http://www.w3.org/2000/svg">
  <defs
     id="defs42" />
  <sodipodi:namedview
     id="namedview40"
     pagecolor="#ffffff"
     bordercolor="#666666"
     borderopacity="1.0"
     inkscape:pageshadow="2"
     inkscape:pageopacity="0.0"
     inkscape:pagecheckerboard="0"
     inkscape:document-units="pt"
     showgrid="false"
     inkscape:zoom="0.7025"
     inkscape:cx="305.33808"
     inkscape:cy="486.121"
     inkscape:window-width="1920"
     inkscape:window-height="1018"
     inkscape:window-x="0"
     inkscape:window-y="28"
     inkscape:window-maximized="1"
     inkscape:current-layer="svg38" />
  <metadata
     id="metadata2">
Created by potrace 1.10, written by Peter Selinger 2001-2011
</metadata>
  <path
     d="m 278.5,48.2 c -18.8,1.1 -31.9,5.7 -45.6,15.9 -11.2,8.3 -19.9,19.6 -25.2,32.9 -5.5,13.9 -5.2,1.9 -5.2,206 v 189.5 l 2.4,8 c 8.3,27 28,46.3 55.1,53.8 13.5,3.8 18.5,3.9 184.5,3.5 l 162,-0.4 9,-2.2 c 16.5,-4.1 29.2,-11.5 39.9,-23.4 10.2,-11.2 15.2,-21.1 18.7,-36.8 1.7,-8.1 1.8,-16.8 1.9,-192.1 0,-162.1 -0.2,-184.6 -1.6,-191.5 -0.8,-4.4 -1.9,-8.8 -2.4,-9.9 -0.5,-1.1 -1.8,-4.2 -2.9,-6.8 -7.4,-17.4 -26.1,-35 -44.2,-41.8 -14.4,-5.3 -8.9,-5.2 -178.4,-5.3 -86.3,0 -161.9,0.2 -168,0.6 z m 354.4,41.4 c 5.1,0.5 6.9,1.2 8.8,3.2 l 2.3,2.5 v 208.3 208.3 l -2.3,2.7 c -3,3.5 -7.9,3.7 -11,0.5 l -2.2,-2.2 -0.5,-203.2 -0.5,-203.2 h -188 -188 l -0.5,203.2 -0.5,203.2 -2.2,2.2 c -2.9,2.9 -7.7,2.9 -10.6,0 l -2.2,-2.2 -0.3,-207.2 c -0.1,-113.9 0,-208.1 0.3,-209.2 0.9,-3.6 3.4,-5.8 7.2,-6.4 5.1,-0.9 382.1,-1.4 390.2,-0.5 z m -361.4,27.8 c 1.9,0.8 3.6,1.6 3.7,1.8 0.2,0.2 0.5,86 0.8,190.8 l 0.5,190.5 162.8,0.3 162.7,0.2 v -2.7 c 0,-1.6 0.1,-86.5 0.3,-188.8 0.1,-139.1 0.5,-186.7 1.4,-188.6 2.3,-5.3 10.6,-5.9 13.2,-1 0.8,1.4 1.1,61.6 1.1,197.5 0,180.5 -0.1,195.6 -1.7,197.1 -0.9,0.9 -2.7,2.1 -4,2.6 -3.8,1.4 -343.6,1.2 -346.7,-0.2 -6,-2.8 -5.6,10.3 -5.6,-199.8 0,-208.1 -0.3,-197.9 5.2,-200.1 1.3,-0.5 2.4,-0.9 2.6,-0.9 0.1,-0.1 1.8,0.6 3.7,1.3 z M 587.6,117 c 5.7,2.2 5.3,-10.1 5.4,186.6 v 182.1 l -2.5,2.7 c -3,3.3 -6.5,3.3 -10.2,0.2 l -2.8,-2.4 -0.3,-176.6 -0.2,-176.6 -137.3,0.2 -137.2,0.3 -0.5,176.3 -0.5,176.4 -2.8,2.4 c -3.6,3.1 -7.1,3.1 -10.2,-0.1 L 286,486.1 V 304.6 c 0,-134.2 0.3,-182.2 1.1,-184 0.7,-1.4 2.4,-3 3.8,-3.5 3.7,-1.4 293.1,-1.4 296.7,-0.1 z m -48.8,27.6 c 1.2,0.8 2.7,2.6 3.2,4 1.3,3.3 1.3,306.4 0.1,309.7 -2.3,5.9 -8.4,7.6 -12.8,3.5 L 527,459.7 V 310.4 c 0,-124.5 -0.2,-149.3 -1.4,-150.3 -1,-0.8 -24.5,-1 -86.7,-0.9 l -85.4,0.3 -0.5,149 c -0.5,155.3 -0.4,152.1 -4.4,154.7 -2.2,1.5 -7,0.8 -9.3,-1.4 L 337,459.7 V 304 c 0,-171.3 -0.5,-159 6,-160.7 1.7,-0.5 45.9,-0.7 98.2,-0.5 83.1,0.2 95.6,0.5 97.6,1.8 z m -214.3,0.9 2.5,2.4 v 163 163.1 l 111.1,0.2 c 61.1,0.2 111.7,-0.1 112.5,-0.5 1.2,-0.7 1.4,-23.4 1.4,-162.5 0,-127.8 0.3,-162.2 1.3,-164.2 2.4,-4.8 10.3,-5.2 12.9,-0.7 1,1.8 1.3,35.8 1.3,171 v 168.9 l -2.8,2.4 -2.8,2.4 H 439.4 316.8 l -2.9,-2.9 -2.9,-2.9 V 317.5 c 0,-146 0.2,-168 1.5,-170.5 2.4,-4.7 8.1,-5.5 12,-1.5 z m 51,26.6 c 2,1.9 2,3.6 2.5,138.7 l 0.5,136.7 60.4,0.3 c 41.5,0.1 60.8,-0.1 61.7,-0.8 1,-0.9 1.3,-27.9 1.3,-136.7 0.1,-77.7 0.5,-136.2 1,-137.2 0.5,-0.9 2.1,-2.3 3.6,-3.1 2.3,-1.2 3,-1.2 5.3,0.1 1.5,0.8 3.2,2.6 3.9,3.9 1,2 1.2,32.1 1,144.2 l -0.2,141.7 -2.3,2.3 -2.3,2.3 h -72.5 -72.6 l -2.4,-2.8 -2.4,-2.8 v -142 -142.1 l 3,-3 c 2.5,-2.4 3.6,-2.9 5.8,-2.3 1.5,0.3 3.6,1.5 4.7,2.6 z m 113.6,-0.2 2.9,2.9 v 128.4 c 0,139.1 0.3,131 -5.1,133.9 -2.8,1.4 -7.7,0.2 -9.2,-2.4 -0.9,-1.7 -1.3,-29.8 -1.7,-125.2 l -0.5,-123 h -36 -36 l -0.5,123 c -0.4,95.4 -0.8,123.5 -1.7,125.2 -0.7,1.2 -2.7,2.4 -4.4,2.8 -4.3,1 -8.1,-1.9 -9.1,-7 -0.5,-2.1 -0.7,-60.7 -0.6,-130.3 l 0.3,-126.4 3,-2.4 3,-2.4 h 46.3 46.4 z m -63.4,26.5 2.8,2.4 0.2,109.4 c 0.2,60.1 0.3,109.7 0.3,110.1 0,0.4 4.8,0.6 10.8,0.5 l 10.7,-0.3 0.3,-110.2 0.2,-110.2 2.6,-2 c 5,-3.9 10.6,-1.8 12.4,4.7 1.5,5.6 1.3,224.6 -0.3,229.2 -0.7,1.9 -2.3,4 -3.7,4.7 -3.1,1.6 -40.5,1.8 -44.5,0.3 -5.8,-2.2 -5.6,2.4 -5.3,-122.1 l 0.3,-114.1 2.8,-2.4 c 3.6,-3 6.8,-3 10.4,0 z"
     id="path4"
     style="fill:#df3c21;stroke:none;stroke-width:0.1;fill-opacity:1" />
</svg>
