<svg width="261" height="66" viewBox="0 0 261 66" fill="none" xmlns="http://www.w3.org/2000/svg" xmlns:xlink="http://www.w3.org/1999/xlink">
<symbol id="logo-symbol-wordmark">
<style type="text/css">
	.st0{fill:#FFFFFF;}
</style>
<g id="Foreground">
	<g>
		<path class="st0" d="M29.2,15.6h22.2l0.2,35.2H38.1V45H21.3l-6.4,5.9H0.4L29.2,15.6z M37.9,37.3V25L26.8,37.3H37.9L37.9,37.3z"/>
		<path class="st0" d="M54.6,15.6h14.8v26.6h16.3v8.6H54.6V15.6z"/>
		<path class="st0" d="M87.6,15.6h14.8v26.6h16.3v8.6H87.6V15.6z"/>
		<path class="st0" d="M144.8,50.6h-15V39.3H118c-7.4,0-13.3-3.2-13.3-11.8c0-9.4,5.9-12.3,14.5-12.3h25.4v35.5H144.8z M129.8,22.5
			h-4.4c-4.2,0-5.7,1.5-5.7,4.4c0,3.5,2,4.7,7.1,4.7h3C129.8,31.9,129.8,22.5,129.8,22.5z"/>
		<path class="st0" d="M147.8,15.1h34v7.4h-19.7v6.7h18.5v7.4h-18.5v6.7h20v7.4h-34.3V15.1z"/>
		<path class="st0" d="M185.5,15.1h34v7.4h-19.7v6.7h18.5v7.4h-18.5v6.7h20v7.4h-34.3V15.1z"/>
		<path class="st0" d="M223.7,15.1h25.4c8.6,0,14.5,3.2,14.5,12.3c0,8.6-5.7,11.8-13.3,11.8h-11.8v11.3h-15L223.7,15.1L223.7,15.1z
			 M238.5,31.9h3c5.4,0,7.1-1.2,7.1-4.7c0-3-1.5-4.4-5.7-4.4h-4.4C238.7,22.5,238.7,31.9,238.5,31.9z"/>
	</g>
</g></symbol><use xlink:href="#logo-symbol-wordmark" style="color:#fff"/>
</svg>
