<svg xmlns="http://www.w3.org/2000/svg" xmlns:xlink="http://www.w3.org/1999/xlink" width="79" height="79" viewBox="0 0 79 79"><symbol id="logo-symbol-icon"><g><path class="cls-1" d="m71.4,18.5l-12.6,10.2,9.7,12-13,10.8h0l-1.2,1-.3.4L22.9,15.6l1.8-1.4h0L42.2,0H0v34.2l21.3-17.4,31.1,37.3-13.4,11-5-6-18,14.7-.8,5.2H0v.1h79V8.4c-1.1,3.7-3.9,7.1-7.6,10.1Zm-12.2-11.2c-2.5-3.1-5.4-3.4-9.8.2l-4.7,3.8c.4,0,8.1,9.4,7.8,9.6l3.2-2.6h0c5.7-4.6,6.4-7.4,3.5-11Zm-42.8,30.7l-1.2,22.9,11.9-9.7-10.7-13.2Z"/></g></symbol><use xlink:href="#logo-symbol-icon" /> </svg>
